<svg width="336" height="300" viewBox="0 0 336 300" fill="none" xmlns="http://www.w3.org/2000/svg">
<g opacity="0.15">
<path fill-rule="evenodd" clip-rule="evenodd" d="M3.10325 7.03453C7.23823 7.03453 7.24466 0.827637 3.10325 0.827637C-1.03067 0.827637 -1.03816 7.03453 3.10325 7.03453Z" fill="#241E1E"/>
<path fill-rule="evenodd" clip-rule="evenodd" d="M23.7933 7.03453C27.9272 7.03453 27.9347 0.827637 23.7933 0.827637C19.6583 0.827637 19.6519 7.03453 23.7933 7.03453Z" fill="#241E1E"/>
<path fill-rule="evenodd" clip-rule="evenodd" d="M46.5515 7.03453C50.6865 7.03453 50.6929 0.827637 46.5515 0.827637C42.4176 0.827637 42.4101 7.03453 46.5515 7.03453Z" fill="#241E1E"/>
<path fill-rule="evenodd" clip-rule="evenodd" d="M67.2414 7.03453C71.3756 7.03453 71.3831 0.827637 67.2414 0.827637C63.1072 0.827637 63.0997 7.03453 67.2414 7.03453Z" fill="#241E1E"/>
<path fill-rule="evenodd" clip-rule="evenodd" d="M15.5176 23.5863C19.6518 23.5863 19.6582 17.3794 15.5176 17.3794C11.3824 17.3794 11.376 23.5863 15.5176 23.5863Z" fill="#241E1E"/>
<path fill-rule="evenodd" clip-rule="evenodd" d="M36.2069 23.5863C40.3411 23.5863 40.3486 17.3794 36.2069 17.3794C32.0727 17.3794 32.0652 23.5863 36.2069 23.5863Z" fill="#241E1E"/>
<path fill-rule="evenodd" clip-rule="evenodd" d="M58.9657 23.5863C63.0996 23.5863 63.1071 17.3794 58.9657 17.3794C54.8307 17.3794 54.8243 23.5863 58.9657 23.5863Z" fill="#241E1E"/>
<path fill-rule="evenodd" clip-rule="evenodd" d="M79.655 23.5863C83.79 23.5863 83.7964 17.3794 79.655 17.3794C75.5211 17.3794 75.5136 23.5863 79.655 23.5863Z" fill="#241E1E"/>
<path fill-rule="evenodd" clip-rule="evenodd" d="M3.10325 33.931C7.23823 33.931 7.24466 27.7241 3.10325 27.7241C-1.03067 27.7241 -1.03816 33.931 3.10325 33.931Z" fill="#241E1E"/>
<path fill-rule="evenodd" clip-rule="evenodd" d="M23.7933 33.931C27.9272 33.931 27.9347 27.7241 23.7933 27.7241C19.6583 27.7241 19.6519 33.931 23.7933 33.931Z" fill="#241E1E"/>
<path fill-rule="evenodd" clip-rule="evenodd" d="M46.5515 33.931C50.6865 33.931 50.6929 27.7241 46.5515 27.7241C42.4176 27.7241 42.4101 33.931 46.5515 33.931Z" fill="#241E1E"/>
<path fill-rule="evenodd" clip-rule="evenodd" d="M67.2414 33.931C71.3756 33.931 71.3831 27.7241 67.2414 27.7241C63.1072 27.7241 63.0997 33.931 67.2414 33.931Z" fill="#241E1E"/>
<path fill-rule="evenodd" clip-rule="evenodd" d="M15.5176 46.3451C19.6518 46.3451 19.6582 40.1382 15.5176 40.1382C11.3824 40.1382 11.376 46.3451 15.5176 46.3451Z" fill="#241E1E"/>
<path fill-rule="evenodd" clip-rule="evenodd" d="M36.2069 46.3451C40.3411 46.3451 40.3486 40.1382 36.2069 40.1382C32.0727 40.1382 32.0652 46.3451 36.2069 46.3451Z" fill="#241E1E"/>
<path fill-rule="evenodd" clip-rule="evenodd" d="M58.9657 46.3451C63.0996 46.3451 63.1071 40.1382 58.9657 40.1382C54.8307 40.1382 54.8243 46.3451 58.9657 46.3451Z" fill="#241E1E"/>
<path fill-rule="evenodd" clip-rule="evenodd" d="M79.655 46.3451C83.79 46.3451 83.7964 40.1382 79.655 40.1382C75.5211 40.1382 75.5136 46.3451 79.655 46.3451Z" fill="#241E1E"/>
<path fill-rule="evenodd" clip-rule="evenodd" d="M2.99751 57.9164C6.99165 57.9164 6.99786 52.5962 2.99751 52.5962C-0.99559 52.5962 -1.00283 57.9164 2.99751 57.9164Z" fill="#241E1E"/>
<path fill-rule="evenodd" clip-rule="evenodd" d="M23.7933 58.7587C27.9272 58.7587 27.9347 52.5518 23.7933 52.5518C19.6583 52.5518 19.6519 58.7587 23.7933 58.7587Z" fill="#241E1E"/>
<path fill-rule="evenodd" clip-rule="evenodd" d="M46.5515 58.7587C50.6865 58.7587 50.6929 52.5518 46.5515 52.5518C42.4176 52.5518 42.4101 58.7587 46.5515 58.7587Z" fill="#241E1E"/>
<path fill-rule="evenodd" clip-rule="evenodd" d="M67.2414 58.7587C71.3756 58.7587 71.3831 52.5518 67.2414 52.5518C63.1072 52.5518 63.0997 58.7587 67.2414 58.7587Z" fill="#241E1E"/>
<path fill-rule="evenodd" clip-rule="evenodd" d="M11.3797 71.1722C15.5139 71.1722 15.5203 64.9653 11.3797 64.9653C7.24446 64.9653 7.23803 71.1722 11.3797 71.1722Z" fill="#241E1E"/>
<path fill-rule="evenodd" clip-rule="evenodd" d="M34.1379 71.1722C38.2721 71.1722 38.2796 64.9653 34.1379 64.9653C30.0038 64.9653 29.9963 71.1722 34.1379 71.1722Z" fill="#241E1E"/>
<path fill-rule="evenodd" clip-rule="evenodd" d="M54.8278 71.1722C58.9617 71.1722 58.9692 64.9653 54.8278 64.9653C50.6928 64.9653 50.6864 71.1722 54.8278 71.1722Z" fill="#241E1E"/>
<path fill-rule="evenodd" clip-rule="evenodd" d="M75.517 71.1722C79.652 71.1722 79.6584 64.9653 75.517 64.9653C71.3831 64.9653 71.3756 71.1722 75.517 71.1722Z" fill="#241E1E"/>
<path fill-rule="evenodd" clip-rule="evenodd" d="M3.10325 83.5863C7.23823 83.5863 7.24466 77.3794 3.10325 77.3794C-1.03067 77.3794 -1.03816 83.5863 3.10325 83.5863Z" fill="#241E1E"/>
<path fill-rule="evenodd" clip-rule="evenodd" d="M23.7933 83.5863C27.9272 83.5863 27.9347 77.3794 23.7933 77.3794C19.6583 77.3794 19.6519 83.5863 23.7933 83.5863Z" fill="#241E1E"/>
<path fill-rule="evenodd" clip-rule="evenodd" d="M46.5515 83.5863C50.6865 83.5863 50.6929 77.3794 46.5515 77.3794C42.4176 77.3794 42.4101 83.5863 46.5515 83.5863Z" fill="#241E1E"/>
<path fill-rule="evenodd" clip-rule="evenodd" d="M67.2414 83.5863C71.3756 83.5863 71.3831 77.3794 67.2414 77.3794C63.1072 77.3794 63.0997 83.5863 67.2414 83.5863Z" fill="#241E1E"/>
<path fill-rule="evenodd" clip-rule="evenodd" d="M15.5176 93.931C19.6518 93.931 19.6582 87.7241 15.5176 87.7241C11.3824 87.7241 11.376 93.931 15.5176 93.931Z" fill="#241E1E"/>
<path fill-rule="evenodd" clip-rule="evenodd" d="M36.2069 93.931C40.3411 93.931 40.3486 87.7241 36.2069 87.7241C32.0727 87.7241 32.0652 93.931 36.2069 93.931Z" fill="#241E1E"/>
<path fill-rule="evenodd" clip-rule="evenodd" d="M58.9657 93.931C63.0996 93.931 63.1071 87.7241 58.9657 87.7241C54.8307 87.7241 54.8243 93.931 58.9657 93.931Z" fill="#241E1E"/>
<path fill-rule="evenodd" clip-rule="evenodd" d="M79.655 93.931C83.79 93.931 83.7964 87.7241 79.655 87.7241C75.5211 87.7241 75.5136 93.931 79.655 93.931Z" fill="#241E1E"/>
<path fill-rule="evenodd" clip-rule="evenodd" d="M3.10325 106.345C7.23823 106.345 7.24466 100.138 3.10325 100.138C-1.03067 100.138 -1.03816 106.345 3.10325 106.345Z" fill="#241E1E"/>
<path fill-rule="evenodd" clip-rule="evenodd" d="M23.7933 106.345C27.9272 106.345 27.9347 100.138 23.7933 100.138C19.6583 100.138 19.6519 106.345 23.7933 106.345Z" fill="#241E1E"/>
<path fill-rule="evenodd" clip-rule="evenodd" d="M46.5515 106.345C50.6865 106.345 50.6929 100.138 46.5515 100.138C42.4176 100.138 42.4101 106.345 46.5515 106.345Z" fill="#241E1E"/>
<path fill-rule="evenodd" clip-rule="evenodd" d="M67.2414 106.345C71.3756 106.345 71.3831 100.138 67.2414 100.138C63.1072 100.138 63.0997 106.345 67.2414 106.345Z" fill="#241E1E"/>
<path fill-rule="evenodd" clip-rule="evenodd" d="M15.5176 122.897C19.6518 122.897 19.6582 116.69 15.5176 116.69C11.3824 116.69 11.376 122.897 15.5176 122.897Z" fill="#241E1E"/>
<path fill-rule="evenodd" clip-rule="evenodd" d="M36.2069 122.897C40.3411 122.897 40.3486 116.69 36.2069 116.69C32.0727 116.69 32.0652 122.897 36.2069 122.897Z" fill="#241E1E"/>
<path fill-rule="evenodd" clip-rule="evenodd" d="M58.9657 122.897C63.0996 122.897 63.1071 116.69 58.9657 116.69C54.8307 116.69 54.8243 122.897 58.9657 122.897Z" fill="#241E1E"/>
<path fill-rule="evenodd" clip-rule="evenodd" d="M79.655 122.897C83.79 122.897 83.7964 116.69 79.655 116.69C75.5211 116.69 75.5136 122.897 79.655 122.897Z" fill="#241E1E"/>
<path fill-rule="evenodd" clip-rule="evenodd" d="M3.10325 135.31C7.23823 135.31 7.24466 129.104 3.10325 129.104C-1.03067 129.104 -1.03816 135.31 3.10325 135.31Z" fill="#241E1E"/>
<path fill-rule="evenodd" clip-rule="evenodd" d="M23.7933 135.31C27.9272 135.31 27.9347 129.104 23.7933 129.104C19.6583 129.104 19.6519 135.31 23.7933 135.31Z" fill="#241E1E"/>
<path fill-rule="evenodd" clip-rule="evenodd" d="M46.5515 135.31C50.6865 135.31 50.6929 129.104 46.5515 129.104C42.4176 129.104 42.4101 135.31 46.5515 135.31Z" fill="#241E1E"/>
<path fill-rule="evenodd" clip-rule="evenodd" d="M67.2414 135.31C71.3756 135.31 71.3831 129.104 67.2414 129.104C63.1072 129.104 63.0997 135.31 67.2414 135.31Z" fill="#241E1E"/>
<path fill-rule="evenodd" clip-rule="evenodd" d="M15.5176 145.655C19.6518 145.655 19.6582 139.448 15.5176 139.448C11.3824 139.448 11.376 145.655 15.5176 145.655Z" fill="#241E1E"/>
<path fill-rule="evenodd" clip-rule="evenodd" d="M36.2069 145.655C40.3411 145.655 40.3486 139.448 36.2069 139.448C32.0727 139.448 32.0652 145.655 36.2069 145.655Z" fill="#241E1E"/>
<path fill-rule="evenodd" clip-rule="evenodd" d="M58.9657 145.655C63.0996 145.655 63.1071 139.448 58.9657 139.448C54.8307 139.448 54.8243 145.655 58.9657 145.655Z" fill="#241E1E"/>
<path fill-rule="evenodd" clip-rule="evenodd" d="M79.655 145.655C83.79 145.655 83.7964 139.448 79.655 139.448C75.5211 139.448 75.5136 145.655 79.655 145.655Z" fill="#241E1E"/>
<path fill-rule="evenodd" clip-rule="evenodd" d="M87.931 7.03453C92.0652 7.03453 92.0727 0.827637 87.931 0.827637C83.7968 0.827637 83.7893 7.03453 87.931 7.03453Z" fill="#241E1E"/>
<path fill-rule="evenodd" clip-rule="evenodd" d="M110.689 7.03453C114.825 7.03453 114.831 0.827637 110.689 0.827637C106.555 0.827637 106.549 7.03453 110.689 7.03453Z" fill="#241E1E"/>
<path fill-rule="evenodd" clip-rule="evenodd" d="M131.379 7.03453C135.513 7.03453 135.521 0.827637 131.379 0.827637C127.245 0.827637 127.238 7.03453 131.379 7.03453Z" fill="#241E1E"/>
<path fill-rule="evenodd" clip-rule="evenodd" d="M152.069 7.03453C156.204 7.03453 156.21 0.827637 152.069 0.827637C147.934 0.827637 147.928 7.03453 152.069 7.03453Z" fill="#241E1E"/>
<path fill-rule="evenodd" clip-rule="evenodd" d="M98.2757 23.5863C102.411 23.5863 102.417 17.3794 98.2757 17.3794C94.1418 17.3794 94.1343 23.5863 98.2757 23.5863Z" fill="#241E1E"/>
<path fill-rule="evenodd" clip-rule="evenodd" d="M118.966 23.5863C123.1 23.5863 123.107 17.3794 118.966 17.3794C114.831 17.3794 114.824 23.5863 118.966 23.5863Z" fill="#241E1E"/>
<path fill-rule="evenodd" clip-rule="evenodd" d="M139.655 23.5863C143.79 23.5863 143.796 17.3794 139.655 17.3794C135.521 17.3794 135.514 23.5863 139.655 23.5863Z" fill="#241E1E"/>
<path fill-rule="evenodd" clip-rule="evenodd" d="M162.414 23.5863C166.548 23.5863 166.555 17.3794 162.414 17.3794C158.279 17.3794 158.273 23.5863 162.414 23.5863Z" fill="#241E1E"/>
<path fill-rule="evenodd" clip-rule="evenodd" d="M87.931 33.931C92.0652 33.931 92.0727 27.7241 87.931 27.7241C83.7968 27.7241 83.7893 33.931 87.931 33.931Z" fill="#241E1E"/>
<path fill-rule="evenodd" clip-rule="evenodd" d="M110.689 33.931C114.825 33.931 114.831 27.7241 110.689 27.7241C106.555 27.7241 106.549 33.931 110.689 33.931Z" fill="#241E1E"/>
<path fill-rule="evenodd" clip-rule="evenodd" d="M131.379 33.931C135.513 33.931 135.521 27.7241 131.379 27.7241C127.245 27.7241 127.238 33.931 131.379 33.931Z" fill="#241E1E"/>
<path fill-rule="evenodd" clip-rule="evenodd" d="M152.069 33.931C156.204 33.931 156.21 27.7241 152.069 27.7241C147.934 27.7241 147.928 33.931 152.069 33.931Z" fill="#241E1E"/>
<path fill-rule="evenodd" clip-rule="evenodd" d="M98.2757 46.3451C102.411 46.3451 102.417 40.1382 98.2757 40.1382C94.1418 40.1382 94.1343 46.3451 98.2757 46.3451Z" fill="#241E1E"/>
<path fill-rule="evenodd" clip-rule="evenodd" d="M118.966 46.3451C123.1 46.3451 123.107 40.1382 118.966 40.1382C114.831 40.1382 114.824 46.3451 118.966 46.3451Z" fill="#241E1E"/>
<path fill-rule="evenodd" clip-rule="evenodd" d="M139.655 46.3451C143.79 46.3451 143.796 40.1382 139.655 40.1382C135.521 40.1382 135.514 46.3451 139.655 46.3451Z" fill="#241E1E"/>
<path fill-rule="evenodd" clip-rule="evenodd" d="M162.414 46.3451C166.548 46.3451 166.555 40.1382 162.414 40.1382C158.279 40.1382 158.273 46.3451 162.414 46.3451Z" fill="#241E1E"/>
<path fill-rule="evenodd" clip-rule="evenodd" d="M87.931 58.7587C92.0652 58.7587 92.0727 52.5518 87.931 52.5518C83.7968 52.5518 83.7893 58.7587 87.931 58.7587Z" fill="#241E1E"/>
<path fill-rule="evenodd" clip-rule="evenodd" d="M110.689 58.7587C114.825 58.7587 114.831 52.5518 110.689 52.5518C106.555 52.5518 106.549 58.7587 110.689 58.7587Z" fill="#241E1E"/>
<path fill-rule="evenodd" clip-rule="evenodd" d="M131.379 58.7587C135.513 58.7587 135.521 52.5518 131.379 52.5518C127.245 52.5518 127.238 58.7587 131.379 58.7587Z" fill="#241E1E"/>
<path fill-rule="evenodd" clip-rule="evenodd" d="M152.069 58.7587C156.204 58.7587 156.21 52.5518 152.069 52.5518C147.934 52.5518 147.928 58.7587 152.069 58.7587Z" fill="#241E1E"/>
<path fill-rule="evenodd" clip-rule="evenodd" d="M98.2757 71.1722C102.411 71.1722 102.417 64.9653 98.2757 64.9653C94.1418 64.9653 94.1343 71.1722 98.2757 71.1722Z" fill="#241E1E"/>
<path fill-rule="evenodd" clip-rule="evenodd" d="M118.966 71.1722C123.1 71.1722 123.107 64.9653 118.966 64.9653C114.831 64.9653 114.824 71.1722 118.966 71.1722Z" fill="#241E1E"/>
<path fill-rule="evenodd" clip-rule="evenodd" d="M139.655 71.1722C143.79 71.1722 143.796 64.9653 139.655 64.9653C135.521 64.9653 135.514 71.1722 139.655 71.1722Z" fill="#241E1E"/>
<path fill-rule="evenodd" clip-rule="evenodd" d="M162.414 71.1722C166.548 71.1722 166.555 64.9653 162.414 64.9653C158.279 64.9653 158.273 71.1722 162.414 71.1722Z" fill="#241E1E"/>
<path fill-rule="evenodd" clip-rule="evenodd" d="M87.931 83.5863C92.0652 83.5863 92.0727 77.3794 87.931 77.3794C83.7968 77.3794 83.7893 83.5863 87.931 83.5863Z" fill="#241E1E"/>
<path fill-rule="evenodd" clip-rule="evenodd" d="M110.689 83.5863C114.825 83.5863 114.831 77.3794 110.689 77.3794C106.555 77.3794 106.549 83.5863 110.689 83.5863Z" fill="#241E1E"/>
<path fill-rule="evenodd" clip-rule="evenodd" d="M131.379 83.5863C135.513 83.5863 135.521 77.3794 131.379 77.3794C127.245 77.3794 127.238 83.5863 131.379 83.5863Z" fill="#241E1E"/>
<path fill-rule="evenodd" clip-rule="evenodd" d="M152.069 83.5863C156.204 83.5863 156.21 77.3794 152.069 77.3794C147.934 77.3794 147.928 83.5863 152.069 83.5863Z" fill="#241E1E"/>
<path fill-rule="evenodd" clip-rule="evenodd" d="M98.2757 93.931C102.411 93.931 102.417 87.7241 98.2757 87.7241C94.1418 87.7241 94.1343 93.931 98.2757 93.931Z" fill="#241E1E"/>
<path fill-rule="evenodd" clip-rule="evenodd" d="M118.966 93.931C123.1 93.931 123.107 87.7241 118.966 87.7241C114.831 87.7241 114.824 93.931 118.966 93.931Z" fill="#241E1E"/>
<path fill-rule="evenodd" clip-rule="evenodd" d="M139.655 93.931C143.79 93.931 143.796 87.7241 139.655 87.7241C135.521 87.7241 135.514 93.931 139.655 93.931Z" fill="#241E1E"/>
<path fill-rule="evenodd" clip-rule="evenodd" d="M162.414 93.931C166.548 93.931 166.555 87.7241 162.414 87.7241C158.279 87.7241 158.273 93.931 162.414 93.931Z" fill="#241E1E"/>
<path fill-rule="evenodd" clip-rule="evenodd" d="M87.931 106.345C92.0652 106.345 92.0727 100.138 87.931 100.138C83.7968 100.138 83.7893 106.345 87.931 106.345Z" fill="#241E1E"/>
<path fill-rule="evenodd" clip-rule="evenodd" d="M110.689 106.345C114.825 106.345 114.831 100.138 110.689 100.138C106.555 100.138 106.549 106.345 110.689 106.345Z" fill="#241E1E"/>
<path fill-rule="evenodd" clip-rule="evenodd" d="M131.379 106.345C135.513 106.345 135.521 100.138 131.379 100.138C127.245 100.138 127.238 106.345 131.379 106.345Z" fill="#241E1E"/>
<path fill-rule="evenodd" clip-rule="evenodd" d="M152.069 106.345C156.204 106.345 156.21 100.138 152.069 100.138C147.934 100.138 147.928 106.345 152.069 106.345Z" fill="#241E1E"/>
<path fill-rule="evenodd" clip-rule="evenodd" d="M98.2757 122.897C102.411 122.897 102.417 116.69 98.2757 116.69C94.1418 116.69 94.1343 122.897 98.2757 122.897Z" fill="#241E1E"/>
<path fill-rule="evenodd" clip-rule="evenodd" d="M118.966 122.897C123.1 122.897 123.107 116.69 118.966 116.69C114.831 116.69 114.824 122.897 118.966 122.897Z" fill="#241E1E"/>
<path fill-rule="evenodd" clip-rule="evenodd" d="M139.655 122.897C143.79 122.897 143.796 116.69 139.655 116.69C135.521 116.69 135.514 122.897 139.655 122.897Z" fill="#241E1E"/>
<path fill-rule="evenodd" clip-rule="evenodd" d="M162.414 122.897C166.548 122.897 166.555 116.69 162.414 116.69C158.279 116.69 158.273 122.897 162.414 122.897Z" fill="#241E1E"/>
<path fill-rule="evenodd" clip-rule="evenodd" d="M87.931 135.31C92.0652 135.31 92.0727 129.104 87.931 129.104C83.7968 129.104 83.7893 135.31 87.931 135.31Z" fill="#241E1E"/>
<path fill-rule="evenodd" clip-rule="evenodd" d="M110.689 135.31C114.825 135.31 114.831 129.104 110.689 129.104C106.555 129.104 106.549 135.31 110.689 135.31Z" fill="#241E1E"/>
<path fill-rule="evenodd" clip-rule="evenodd" d="M131.379 135.31C135.513 135.31 135.521 129.104 131.379 129.104C127.245 129.104 127.238 135.31 131.379 135.31Z" fill="#241E1E"/>
<path fill-rule="evenodd" clip-rule="evenodd" d="M152.069 135.31C156.204 135.31 156.21 129.104 152.069 129.104C147.934 129.104 147.928 135.31 152.069 135.31Z" fill="#241E1E"/>
<path fill-rule="evenodd" clip-rule="evenodd" d="M98.2757 145.655C102.411 145.655 102.417 139.448 98.2757 139.448C94.1418 139.448 94.1343 145.655 98.2757 145.655Z" fill="#241E1E"/>
<path fill-rule="evenodd" clip-rule="evenodd" d="M118.966 145.655C123.1 145.655 123.107 139.448 118.966 139.448C114.831 139.448 114.824 145.655 118.966 145.655Z" fill="#241E1E"/>
<path fill-rule="evenodd" clip-rule="evenodd" d="M139.655 145.655C143.79 145.655 143.796 139.448 139.655 139.448C135.521 139.448 135.514 145.655 139.655 145.655Z" fill="#241E1E"/>
<path fill-rule="evenodd" clip-rule="evenodd" d="M162.414 145.655C166.548 145.655 166.555 139.448 162.414 139.448C158.279 139.448 158.273 145.655 162.414 145.655Z" fill="#241E1E"/>
<path fill-rule="evenodd" clip-rule="evenodd" d="M3.10325 162.207C7.23823 162.207 7.24466 156 3.10325 156C-1.03067 156 -1.03816 162.207 3.10325 162.207Z" fill="#241E1E"/>
<path fill-rule="evenodd" clip-rule="evenodd" d="M23.7933 162.207C27.9272 162.207 27.9347 156 23.7933 156C19.6583 156 19.6519 162.207 23.7933 162.207Z" fill="#241E1E"/>
<path fill-rule="evenodd" clip-rule="evenodd" d="M46.5515 162.207C50.6865 162.207 50.6929 156 46.5515 156C42.4176 156 42.4101 162.207 46.5515 162.207Z" fill="#241E1E"/>
<path fill-rule="evenodd" clip-rule="evenodd" d="M67.2414 162.207C71.3756 162.207 71.3831 156 67.2414 156C63.1072 156 63.0997 162.207 67.2414 162.207Z" fill="#241E1E"/>
<path fill-rule="evenodd" clip-rule="evenodd" d="M15.5176 174.621C19.6518 174.621 19.6582 168.414 15.5176 168.414C11.3824 168.414 11.376 174.621 15.5176 174.621Z" fill="#241E1E"/>
<path fill-rule="evenodd" clip-rule="evenodd" d="M36.2069 174.621C40.3411 174.621 40.3486 168.414 36.2069 168.414C32.0727 168.414 32.0652 174.621 36.2069 174.621Z" fill="#241E1E"/>
<path fill-rule="evenodd" clip-rule="evenodd" d="M58.9657 174.621C63.0996 174.621 63.1071 168.414 58.9657 168.414C54.8307 168.414 54.8243 174.621 58.9657 174.621Z" fill="#241E1E"/>
<path fill-rule="evenodd" clip-rule="evenodd" d="M79.655 174.621C83.79 174.621 83.7964 168.414 79.655 168.414C75.5211 168.414 75.5136 174.621 79.655 174.621Z" fill="#241E1E"/>
<path fill-rule="evenodd" clip-rule="evenodd" d="M3.10325 187.035C7.23823 187.035 7.24466 180.828 3.10325 180.828C-1.03067 180.828 -1.03816 187.035 3.10325 187.035Z" fill="#241E1E"/>
<path fill-rule="evenodd" clip-rule="evenodd" d="M23.7933 187.035C27.9272 187.035 27.9347 180.828 23.7933 180.828C19.6583 180.828 19.6519 187.035 23.7933 187.035Z" fill="#241E1E"/>
<path fill-rule="evenodd" clip-rule="evenodd" d="M46.5515 187.035C50.6865 187.035 50.6929 180.828 46.5515 180.828C42.4176 180.828 42.4101 187.035 46.5515 187.035Z" fill="#241E1E"/>
<path fill-rule="evenodd" clip-rule="evenodd" d="M67.2414 187.035C71.3756 187.035 71.3831 180.828 67.2414 180.828C63.1072 180.828 63.0997 187.035 67.2414 187.035Z" fill="#241E1E"/>
<path fill-rule="evenodd" clip-rule="evenodd" d="M15.5176 197.379C19.6518 197.379 19.6582 191.172 15.5176 191.172C11.3824 191.172 11.376 197.379 15.5176 197.379Z" fill="#241E1E"/>
<path fill-rule="evenodd" clip-rule="evenodd" d="M36.2069 197.379C40.3411 197.379 40.3486 191.172 36.2069 191.172C32.0727 191.172 32.0652 197.379 36.2069 197.379Z" fill="#241E1E"/>
<path fill-rule="evenodd" clip-rule="evenodd" d="M58.9657 197.379C63.0996 197.379 63.1071 191.172 58.9657 191.172C54.8307 191.172 54.8243 197.379 58.9657 197.379Z" fill="#241E1E"/>
<path fill-rule="evenodd" clip-rule="evenodd" d="M79.655 197.379C83.79 197.379 83.7964 191.172 79.655 191.172C75.5211 191.172 75.5136 197.379 79.655 197.379Z" fill="#241E1E"/>
<path fill-rule="evenodd" clip-rule="evenodd" d="M2.99751 209.173C6.99165 209.173 6.99786 203.853 2.99751 203.853C-0.99559 203.853 -1.00283 209.173 2.99751 209.173Z" fill="#241E1E"/>
<path fill-rule="evenodd" clip-rule="evenodd" d="M23.7933 209.793C27.9272 209.793 27.9347 203.586 23.7933 203.586C19.6583 203.586 19.6519 209.793 23.7933 209.793Z" fill="#241E1E"/>
<path fill-rule="evenodd" clip-rule="evenodd" d="M46.5515 209.793C50.6865 209.793 50.6929 203.586 46.5515 203.586C42.4176 203.586 42.4101 209.793 46.5515 209.793Z" fill="#241E1E"/>
<path fill-rule="evenodd" clip-rule="evenodd" d="M67.2414 209.793C71.3756 209.793 71.3831 203.586 67.2414 203.586C63.1072 203.586 63.0997 209.793 67.2414 209.793Z" fill="#241E1E"/>
<path fill-rule="evenodd" clip-rule="evenodd" d="M11.3797 222.207C15.5139 222.207 15.5203 216 11.3797 216C7.24446 216 7.23803 222.207 11.3797 222.207Z" fill="#241E1E"/>
<path fill-rule="evenodd" clip-rule="evenodd" d="M34.1379 222.207C38.2721 222.207 38.2796 216 34.1379 216C30.0038 216 29.9963 222.207 34.1379 222.207Z" fill="#241E1E"/>
<path fill-rule="evenodd" clip-rule="evenodd" d="M54.8278 222.207C58.9617 222.207 58.9692 216 54.8278 216C50.6928 216 50.6864 222.207 54.8278 222.207Z" fill="#241E1E"/>
<path fill-rule="evenodd" clip-rule="evenodd" d="M75.517 222.207C79.652 222.207 79.6584 216 75.517 216C71.3831 216 71.3756 222.207 75.517 222.207Z" fill="#241E1E"/>
<path fill-rule="evenodd" clip-rule="evenodd" d="M3.10325 234.621C7.23823 234.621 7.24466 228.414 3.10325 228.414C-1.03067 228.414 -1.03816 234.621 3.10325 234.621Z" fill="#241E1E"/>
<path fill-rule="evenodd" clip-rule="evenodd" d="M23.7933 234.621C27.9272 234.621 27.9347 228.414 23.7933 228.414C19.6583 228.414 19.6519 234.621 23.7933 234.621Z" fill="#241E1E"/>
<path fill-rule="evenodd" clip-rule="evenodd" d="M46.5515 234.621C50.6865 234.621 50.6929 228.414 46.5515 228.414C42.4176 228.414 42.4101 234.621 46.5515 234.621Z" fill="#241E1E"/>
<path fill-rule="evenodd" clip-rule="evenodd" d="M67.2414 234.621C71.3756 234.621 71.3831 228.414 67.2414 228.414C63.1072 228.414 63.0997 234.621 67.2414 234.621Z" fill="#241E1E"/>
<path fill-rule="evenodd" clip-rule="evenodd" d="M15.5176 249.103C19.6518 249.103 19.6582 242.896 15.5176 242.896C11.3824 242.896 11.376 249.103 15.5176 249.103Z" fill="#241E1E"/>
<path fill-rule="evenodd" clip-rule="evenodd" d="M36.2069 249.103C40.3411 249.103 40.3486 242.896 36.2069 242.896C32.0727 242.896 32.0652 249.103 36.2069 249.103Z" fill="#241E1E"/>
<path fill-rule="evenodd" clip-rule="evenodd" d="M58.9657 249.103C63.0996 249.103 63.1071 242.896 58.9657 242.896C54.8307 242.896 54.8243 249.103 58.9657 249.103Z" fill="#241E1E"/>
<path fill-rule="evenodd" clip-rule="evenodd" d="M79.655 249.103C83.79 249.103 83.7964 242.896 79.655 242.896C75.5211 242.896 75.5136 249.103 79.655 249.103Z" fill="#241E1E"/>
<path fill-rule="evenodd" clip-rule="evenodd" d="M3.10325 261.517C7.23823 261.517 7.24466 255.311 3.10325 255.311C-1.03067 255.311 -1.03816 261.517 3.10325 261.517Z" fill="#241E1E"/>
<path fill-rule="evenodd" clip-rule="evenodd" d="M23.7933 261.517C27.9272 261.517 27.9347 255.311 23.7933 255.311C19.6583 255.311 19.6519 261.517 23.7933 261.517Z" fill="#241E1E"/>
<path fill-rule="evenodd" clip-rule="evenodd" d="M46.5515 261.517C50.6865 261.517 50.6929 255.311 46.5515 255.311C42.4176 255.311 42.4101 261.517 46.5515 261.517Z" fill="#241E1E"/>
<path fill-rule="evenodd" clip-rule="evenodd" d="M67.2414 261.517C71.3756 261.517 71.3831 255.311 67.2414 255.311C63.1072 255.311 63.0997 261.517 67.2414 261.517Z" fill="#241E1E"/>
<path fill-rule="evenodd" clip-rule="evenodd" d="M15.5176 273.931C19.6518 273.931 19.6582 267.724 15.5176 267.724C11.3824 267.724 11.376 273.931 15.5176 273.931Z" fill="#241E1E"/>
<path fill-rule="evenodd" clip-rule="evenodd" d="M36.2069 273.931C40.3411 273.931 40.3486 267.724 36.2069 267.724C32.0727 267.724 32.0652 273.931 36.2069 273.931Z" fill="#241E1E"/>
<path fill-rule="evenodd" clip-rule="evenodd" d="M58.9657 273.931C63.0996 273.931 63.1071 267.724 58.9657 267.724C54.8307 267.724 54.8243 273.931 58.9657 273.931Z" fill="#241E1E"/>
<path fill-rule="evenodd" clip-rule="evenodd" d="M79.655 273.931C83.79 273.931 83.7964 267.724 79.655 267.724C75.5211 267.724 75.5136 273.931 79.655 273.931Z" fill="#241E1E"/>
<path fill-rule="evenodd" clip-rule="evenodd" d="M3.10325 286.345C7.23823 286.345 7.24466 280.138 3.10325 280.138C-1.03067 280.138 -1.03816 286.345 3.10325 286.345Z" fill="#241E1E"/>
<path fill-rule="evenodd" clip-rule="evenodd" d="M23.7933 286.345C27.9272 286.345 27.9347 280.138 23.7933 280.138C19.6583 280.138 19.6519 286.345 23.7933 286.345Z" fill="#241E1E"/>
<path fill-rule="evenodd" clip-rule="evenodd" d="M46.5515 286.345C50.6865 286.345 50.6929 280.138 46.5515 280.138C42.4176 280.138 42.4101 286.345 46.5515 286.345Z" fill="#241E1E"/>
<path fill-rule="evenodd" clip-rule="evenodd" d="M67.2414 286.345C71.3756 286.345 71.3831 280.138 67.2414 280.138C63.1072 280.138 63.0997 286.345 67.2414 286.345Z" fill="#241E1E"/>
<mask id="mask0" mask-type="alpha" maskUnits="userSpaceOnUse" x="12" y="292" width="6" height="7">
<path fill-rule="evenodd" clip-rule="evenodd" d="M17.8067 298.758H12.6681L12.6681 292.552H17.8067V298.758Z" fill="white"/>
</mask>
<g mask="url(#mask0)">
<path fill-rule="evenodd" clip-rule="evenodd" d="M15.2377 298.759C18.6604 298.759 18.6657 292.552 15.2377 292.552C11.8142 292.552 11.8089 298.759 15.2377 298.759Z" fill="#241E1E"/>
</g>
<mask id="mask1" mask-type="alpha" maskUnits="userSpaceOnUse" x="31" y="292" width="6" height="7">
<path fill-rule="evenodd" clip-rule="evenodd" d="M36.9351 298.758H31.7965L31.7965 292.552H36.9351V298.758Z" fill="white"/>
</mask>
<g mask="url(#mask1)">
<path fill-rule="evenodd" clip-rule="evenodd" d="M34.3658 298.759C37.7885 298.759 37.7947 292.552 34.3658 292.552C30.9432 292.552 30.9369 298.759 34.3658 298.759Z" fill="#241E1E"/>
</g>
<mask id="mask2" mask-type="alpha" maskUnits="userSpaceOnUse" x="56" y="292" width="6" height="7">
<path fill-rule="evenodd" clip-rule="evenodd" d="M61.3844 298.758H56.2454L56.2454 292.552H61.3844V298.758Z" fill="white"/>
</mask>
<g mask="url(#mask2)">
<path fill-rule="evenodd" clip-rule="evenodd" d="M58.815 298.759C62.2377 298.759 62.2439 292.552 58.815 292.552C55.3915 292.552 55.3862 298.759 58.815 298.759Z" fill="#241E1E"/>
</g>
<mask id="mask3" mask-type="alpha" maskUnits="userSpaceOnUse" x="76" y="292" width="7" height="7">
<path fill-rule="evenodd" clip-rule="evenodd" d="M82.5522 298.758H76.5568L76.5568 292.552H82.5522V298.758Z" fill="white"/>
</mask>
<g mask="url(#mask3)">
<path fill-rule="evenodd" clip-rule="evenodd" d="M79.5543 298.759C83.5484 298.759 83.5547 292.552 79.5543 292.552C75.5612 292.552 75.554 298.759 79.5543 298.759Z" fill="#241E1E"/>
</g>
<path fill-rule="evenodd" clip-rule="evenodd" d="M87.931 162.207C92.0652 162.207 92.0727 156 87.931 156C83.7968 156 83.7893 162.207 87.931 162.207Z" fill="#241E1E"/>
<path fill-rule="evenodd" clip-rule="evenodd" d="M110.689 162.207C114.825 162.207 114.831 156 110.689 156C106.555 156 106.549 162.207 110.689 162.207Z" fill="#241E1E"/>
<path fill-rule="evenodd" clip-rule="evenodd" d="M131.379 162.207C135.513 162.207 135.521 156 131.379 156C127.245 156 127.238 162.207 131.379 162.207Z" fill="#241E1E"/>
<path fill-rule="evenodd" clip-rule="evenodd" d="M152.069 162.207C156.204 162.207 156.21 156 152.069 156C147.934 156 147.928 162.207 152.069 162.207Z" fill="#241E1E"/>
<path fill-rule="evenodd" clip-rule="evenodd" d="M98.2757 174.621C102.411 174.621 102.417 168.414 98.2757 168.414C94.1418 168.414 94.1343 174.621 98.2757 174.621Z" fill="#241E1E"/>
<path fill-rule="evenodd" clip-rule="evenodd" d="M118.966 174.621C123.1 174.621 123.107 168.414 118.966 168.414C114.831 168.414 114.824 174.621 118.966 174.621Z" fill="#241E1E"/>
<path fill-rule="evenodd" clip-rule="evenodd" d="M139.655 174.621C143.79 174.621 143.796 168.414 139.655 168.414C135.521 168.414 135.514 174.621 139.655 174.621Z" fill="#241E1E"/>
<path fill-rule="evenodd" clip-rule="evenodd" d="M162.414 174.621C166.548 174.621 166.555 168.414 162.414 168.414C158.279 168.414 158.273 174.621 162.414 174.621Z" fill="#241E1E"/>
<path fill-rule="evenodd" clip-rule="evenodd" d="M87.931 187.035C92.0652 187.035 92.0727 180.828 87.931 180.828C83.7968 180.828 83.7893 187.035 87.931 187.035Z" fill="#241E1E"/>
<path fill-rule="evenodd" clip-rule="evenodd" d="M110.689 187.035C114.825 187.035 114.831 180.828 110.689 180.828C106.555 180.828 106.549 187.035 110.689 187.035Z" fill="#241E1E"/>
<path fill-rule="evenodd" clip-rule="evenodd" d="M131.379 187.035C135.513 187.035 135.521 180.828 131.379 180.828C127.245 180.828 127.238 187.035 131.379 187.035Z" fill="#241E1E"/>
<path fill-rule="evenodd" clip-rule="evenodd" d="M152.069 187.035C156.204 187.035 156.21 180.828 152.069 180.828C147.934 180.828 147.928 187.035 152.069 187.035Z" fill="#241E1E"/>
<path fill-rule="evenodd" clip-rule="evenodd" d="M98.2757 197.379C102.411 197.379 102.417 191.172 98.2757 191.172C94.1418 191.172 94.1343 197.379 98.2757 197.379Z" fill="#241E1E"/>
<path fill-rule="evenodd" clip-rule="evenodd" d="M118.966 197.379C123.1 197.379 123.107 191.172 118.966 191.172C114.831 191.172 114.824 197.379 118.966 197.379Z" fill="#241E1E"/>
<path fill-rule="evenodd" clip-rule="evenodd" d="M139.655 197.379C143.79 197.379 143.796 191.172 139.655 191.172C135.521 191.172 135.514 197.379 139.655 197.379Z" fill="#241E1E"/>
<path fill-rule="evenodd" clip-rule="evenodd" d="M162.414 197.379C166.548 197.379 166.555 191.172 162.414 191.172C158.279 191.172 158.273 197.379 162.414 197.379Z" fill="#241E1E"/>
<path fill-rule="evenodd" clip-rule="evenodd" d="M87.931 209.793C92.0652 209.793 92.0727 203.586 87.931 203.586C83.7968 203.586 83.7893 209.793 87.931 209.793Z" fill="#241E1E"/>
<path fill-rule="evenodd" clip-rule="evenodd" d="M110.689 209.793C114.825 209.793 114.831 203.586 110.689 203.586C106.555 203.586 106.549 209.793 110.689 209.793Z" fill="#241E1E"/>
<path fill-rule="evenodd" clip-rule="evenodd" d="M131.379 209.793C135.513 209.793 135.521 203.586 131.379 203.586C127.245 203.586 127.238 209.793 131.379 209.793Z" fill="#241E1E"/>
<path fill-rule="evenodd" clip-rule="evenodd" d="M152.069 209.793C156.204 209.793 156.21 203.586 152.069 203.586C147.934 203.586 147.928 209.793 152.069 209.793Z" fill="#241E1E"/>
<path fill-rule="evenodd" clip-rule="evenodd" d="M98.2757 222.207C102.411 222.207 102.417 216 98.2757 216C94.1418 216 94.1343 222.207 98.2757 222.207Z" fill="#241E1E"/>
<path fill-rule="evenodd" clip-rule="evenodd" d="M118.966 222.207C123.1 222.207 123.107 216 118.966 216C114.831 216 114.824 222.207 118.966 222.207Z" fill="#241E1E"/>
<path fill-rule="evenodd" clip-rule="evenodd" d="M139.655 222.207C143.79 222.207 143.796 216 139.655 216C135.521 216 135.514 222.207 139.655 222.207Z" fill="#241E1E"/>
<path fill-rule="evenodd" clip-rule="evenodd" d="M162.414 222.207C166.548 222.207 166.555 216 162.414 216C158.279 216 158.273 222.207 162.414 222.207Z" fill="#241E1E"/>
<path fill-rule="evenodd" clip-rule="evenodd" d="M87.931 234.621C92.0652 234.621 92.0727 228.414 87.931 228.414C83.7968 228.414 83.7893 234.621 87.931 234.621Z" fill="#241E1E"/>
<path fill-rule="evenodd" clip-rule="evenodd" d="M110.689 234.621C114.825 234.621 114.831 228.414 110.689 228.414C106.555 228.414 106.549 234.621 110.689 234.621Z" fill="#241E1E"/>
<path fill-rule="evenodd" clip-rule="evenodd" d="M131.379 234.621C135.513 234.621 135.521 228.414 131.379 228.414C127.245 228.414 127.238 234.621 131.379 234.621Z" fill="#241E1E"/>
<path fill-rule="evenodd" clip-rule="evenodd" d="M152.069 234.621C156.204 234.621 156.21 228.414 152.069 228.414C147.934 228.414 147.928 234.621 152.069 234.621Z" fill="#241E1E"/>
<path fill-rule="evenodd" clip-rule="evenodd" d="M98.2757 249.103C102.411 249.103 102.417 242.896 98.2757 242.896C94.1418 242.896 94.1343 249.103 98.2757 249.103Z" fill="#241E1E"/>
<path fill-rule="evenodd" clip-rule="evenodd" d="M118.966 249.103C123.1 249.103 123.107 242.896 118.966 242.896C114.831 242.896 114.824 249.103 118.966 249.103Z" fill="#241E1E"/>
<path fill-rule="evenodd" clip-rule="evenodd" d="M139.655 249.103C143.79 249.103 143.796 242.896 139.655 242.896C135.521 242.896 135.514 249.103 139.655 249.103Z" fill="#241E1E"/>
<path fill-rule="evenodd" clip-rule="evenodd" d="M162.414 249.103C166.548 249.103 166.555 242.896 162.414 242.896C158.279 242.896 158.273 249.103 162.414 249.103Z" fill="#241E1E"/>
<path fill-rule="evenodd" clip-rule="evenodd" d="M87.931 261.517C92.0652 261.517 92.0727 255.311 87.931 255.311C83.7968 255.311 83.7893 261.517 87.931 261.517Z" fill="#241E1E"/>
<path fill-rule="evenodd" clip-rule="evenodd" d="M110.689 261.517C114.825 261.517 114.831 255.311 110.689 255.311C106.555 255.311 106.549 261.517 110.689 261.517Z" fill="#241E1E"/>
<path fill-rule="evenodd" clip-rule="evenodd" d="M131.379 261.517C135.513 261.517 135.521 255.311 131.379 255.311C127.245 255.311 127.238 261.517 131.379 261.517Z" fill="#241E1E"/>
<path fill-rule="evenodd" clip-rule="evenodd" d="M152.069 261.517C156.204 261.517 156.21 255.311 152.069 255.311C147.934 255.311 147.928 261.517 152.069 261.517Z" fill="#241E1E"/>
<path fill-rule="evenodd" clip-rule="evenodd" d="M98.2757 273.931C102.411 273.931 102.417 267.724 98.2757 267.724C94.1418 267.724 94.1343 273.931 98.2757 273.931Z" fill="#241E1E"/>
<path fill-rule="evenodd" clip-rule="evenodd" d="M118.966 273.931C123.1 273.931 123.107 267.724 118.966 267.724C114.831 267.724 114.824 273.931 118.966 273.931Z" fill="#241E1E"/>
<path fill-rule="evenodd" clip-rule="evenodd" d="M139.655 273.931C143.79 273.931 143.796 267.724 139.655 267.724C135.521 267.724 135.514 273.931 139.655 273.931Z" fill="#241E1E"/>
<path fill-rule="evenodd" clip-rule="evenodd" d="M162.414 273.931C166.548 273.931 166.555 267.724 162.414 267.724C158.279 267.724 158.273 273.931 162.414 273.931Z" fill="#241E1E"/>
<path fill-rule="evenodd" clip-rule="evenodd" d="M87.931 286.345C92.0652 286.345 92.0727 280.138 87.931 280.138C83.7968 280.138 83.7893 286.345 87.931 286.345Z" fill="#241E1E"/>
<path fill-rule="evenodd" clip-rule="evenodd" d="M110.689 286.345C114.825 286.345 114.831 280.138 110.689 280.138C106.555 280.138 106.549 286.345 110.689 286.345Z" fill="#241E1E"/>
<path fill-rule="evenodd" clip-rule="evenodd" d="M131.379 286.345C135.513 286.345 135.521 280.138 131.379 280.138C127.245 280.138 127.238 286.345 131.379 286.345Z" fill="#241E1E"/>
<path fill-rule="evenodd" clip-rule="evenodd" d="M152.069 286.345C156.204 286.345 156.21 280.138 152.069 280.138C147.934 280.138 147.928 286.345 152.069 286.345Z" fill="#241E1E"/>
<mask id="mask4" mask-type="alpha" maskUnits="userSpaceOnUse" x="95" y="292" width="7" height="7">
<path fill-rule="evenodd" clip-rule="evenodd" d="M101.069 298.758H95.9302V292.552H101.069V298.758Z" fill="white"/>
</mask>
<g mask="url(#mask4)">
<path fill-rule="evenodd" clip-rule="evenodd" d="M98.4995 298.759C101.923 298.759 101.928 292.552 98.4995 292.552C95.0768 292.552 95.0706 298.759 98.4995 298.759Z" fill="#241E1E"/>
</g>
<mask id="mask5" mask-type="alpha" maskUnits="userSpaceOnUse" x="116" y="292" width="6" height="7">
<path fill-rule="evenodd" clip-rule="evenodd" d="M121.38 298.758H116.241V292.552H121.38V298.758Z" fill="white"/>
</mask>
<g mask="url(#mask5)">
<path fill-rule="evenodd" clip-rule="evenodd" d="M118.811 298.759C122.233 298.759 122.24 292.552 118.811 292.552C115.387 292.552 115.382 298.759 118.811 298.759Z" fill="#241E1E"/>
</g>
<mask id="mask6" mask-type="alpha" maskUnits="userSpaceOnUse" x="136" y="292" width="7" height="7">
<path fill-rule="evenodd" clip-rule="evenodd" d="M142.547 298.758H136.552V292.552H142.547V298.758Z" fill="white"/>
</mask>
<g mask="url(#mask6)">
<path fill-rule="evenodd" clip-rule="evenodd" d="M139.549 298.759C143.543 298.759 143.55 292.552 139.549 292.552C135.556 292.552 135.549 298.759 139.549 298.759Z" fill="#241E1E"/>
</g>
<mask id="mask7" mask-type="alpha" maskUnits="userSpaceOnUse" x="159" y="292" width="6" height="7">
<path fill-rule="evenodd" clip-rule="evenodd" d="M164.957 298.758H159.818L159.818 292.552H164.957V298.758Z" fill="white"/>
</mask>
<g mask="url(#mask7)">
<path fill-rule="evenodd" clip-rule="evenodd" d="M162.388 298.759C165.811 298.759 165.817 292.552 162.388 292.552C158.964 292.552 158.959 298.759 162.388 298.759Z" fill="#241E1E"/>
</g>
<path fill-rule="evenodd" clip-rule="evenodd" d="M174.827 162.207C178.962 162.207 178.969 156 174.827 156C170.693 156 170.686 162.207 174.827 162.207Z" fill="#241E1E"/>
<path fill-rule="evenodd" clip-rule="evenodd" d="M195.517 162.207C199.651 162.207 199.659 156 195.517 156C191.382 156 191.376 162.207 195.517 162.207Z" fill="#241E1E"/>
<path fill-rule="evenodd" clip-rule="evenodd" d="M216.207 162.207C220.342 162.207 220.348 156 216.207 156C212.073 156 212.065 162.207 216.207 162.207Z" fill="#241E1E"/>
<path fill-rule="evenodd" clip-rule="evenodd" d="M238.966 162.207C243.1 162.207 243.107 156 238.966 156C234.831 156 234.824 162.207 238.966 162.207Z" fill="#241E1E"/>
<path fill-rule="evenodd" clip-rule="evenodd" d="M183.104 174.621C187.238 174.621 187.244 168.414 183.104 168.414C178.969 168.414 178.962 174.621 183.104 174.621Z" fill="#241E1E"/>
<path fill-rule="evenodd" clip-rule="evenodd" d="M203.793 174.621C207.927 174.621 207.935 168.414 203.793 168.414C199.659 168.414 199.651 174.621 203.793 174.621Z" fill="#241E1E"/>
<path fill-rule="evenodd" clip-rule="evenodd" d="M226.552 174.621C230.686 174.621 230.693 168.414 226.552 168.414C222.417 168.414 222.411 174.621 226.552 174.621Z" fill="#241E1E"/>
<path fill-rule="evenodd" clip-rule="evenodd" d="M247.241 174.621C251.376 174.621 251.383 168.414 247.241 168.414C243.107 168.414 243.1 174.621 247.241 174.621Z" fill="#241E1E"/>
<path fill-rule="evenodd" clip-rule="evenodd" d="M174.827 187.035C178.962 187.035 178.969 180.828 174.827 180.828C170.693 180.828 170.686 187.035 174.827 187.035Z" fill="#241E1E"/>
<path fill-rule="evenodd" clip-rule="evenodd" d="M195.517 187.035C199.651 187.035 199.659 180.828 195.517 180.828C191.382 180.828 191.376 187.035 195.517 187.035Z" fill="#241E1E"/>
<path fill-rule="evenodd" clip-rule="evenodd" d="M216.207 187.035C220.342 187.035 220.348 180.828 216.207 180.828C212.073 180.828 212.065 187.035 216.207 187.035Z" fill="#241E1E"/>
<path fill-rule="evenodd" clip-rule="evenodd" d="M238.966 187.035C243.1 187.035 243.107 180.828 238.966 180.828C234.831 180.828 234.824 187.035 238.966 187.035Z" fill="#241E1E"/>
<path fill-rule="evenodd" clip-rule="evenodd" d="M183.104 197.379C187.238 197.379 187.244 191.172 183.104 191.172C178.969 191.172 178.962 197.379 183.104 197.379Z" fill="#241E1E"/>
<path fill-rule="evenodd" clip-rule="evenodd" d="M203.793 197.379C207.927 197.379 207.935 191.172 203.793 191.172C199.659 191.172 199.651 197.379 203.793 197.379Z" fill="#241E1E"/>
<path fill-rule="evenodd" clip-rule="evenodd" d="M226.552 197.379C230.686 197.379 230.693 191.172 226.552 191.172C222.417 191.172 222.411 197.379 226.552 197.379Z" fill="#241E1E"/>
<path fill-rule="evenodd" clip-rule="evenodd" d="M247.241 197.379C251.376 197.379 251.383 191.172 247.241 191.172C243.107 191.172 243.1 197.379 247.241 197.379Z" fill="#241E1E"/>
<path fill-rule="evenodd" clip-rule="evenodd" d="M174.827 209.793C178.962 209.793 178.969 203.586 174.827 203.586C170.693 203.586 170.686 209.793 174.827 209.793Z" fill="#241E1E"/>
<path fill-rule="evenodd" clip-rule="evenodd" d="M195.517 209.793C199.651 209.793 199.659 203.586 195.517 203.586C191.382 203.586 191.376 209.793 195.517 209.793Z" fill="#241E1E"/>
<path fill-rule="evenodd" clip-rule="evenodd" d="M216.207 209.793C220.342 209.793 220.348 203.586 216.207 203.586C212.073 203.586 212.065 209.793 216.207 209.793Z" fill="#241E1E"/>
<path fill-rule="evenodd" clip-rule="evenodd" d="M238.966 209.793C243.1 209.793 243.107 203.586 238.966 203.586C234.831 203.586 234.824 209.793 238.966 209.793Z" fill="#241E1E"/>
<path fill-rule="evenodd" clip-rule="evenodd" d="M183.104 222.207C187.238 222.207 187.244 216 183.104 216C178.969 216 178.962 222.207 183.104 222.207Z" fill="#241E1E"/>
<path fill-rule="evenodd" clip-rule="evenodd" d="M203.793 222.207C207.927 222.207 207.935 216 203.793 216C199.659 216 199.651 222.207 203.793 222.207Z" fill="#241E1E"/>
<path fill-rule="evenodd" clip-rule="evenodd" d="M226.552 222.207C230.686 222.207 230.693 216 226.552 216C222.417 216 222.411 222.207 226.552 222.207Z" fill="#241E1E"/>
<path fill-rule="evenodd" clip-rule="evenodd" d="M247.241 222.207C251.376 222.207 251.383 216 247.241 216C243.107 216 243.1 222.207 247.241 222.207Z" fill="#241E1E"/>
<path fill-rule="evenodd" clip-rule="evenodd" d="M174.827 234.621C178.962 234.621 178.969 228.414 174.827 228.414C170.693 228.414 170.686 234.621 174.827 234.621Z" fill="#241E1E"/>
<path fill-rule="evenodd" clip-rule="evenodd" d="M195.517 234.621C199.651 234.621 199.659 228.414 195.517 228.414C191.382 228.414 191.376 234.621 195.517 234.621Z" fill="#241E1E"/>
<path fill-rule="evenodd" clip-rule="evenodd" d="M216.207 234.621C220.342 234.621 220.348 228.414 216.207 228.414C212.073 228.414 212.065 234.621 216.207 234.621Z" fill="#241E1E"/>
<path fill-rule="evenodd" clip-rule="evenodd" d="M238.966 234.621C243.1 234.621 243.107 228.414 238.966 228.414C234.831 228.414 234.824 234.621 238.966 234.621Z" fill="#241E1E"/>
<path fill-rule="evenodd" clip-rule="evenodd" d="M183.104 249.103C187.238 249.103 187.244 242.896 183.104 242.896C178.969 242.896 178.962 249.103 183.104 249.103Z" fill="#241E1E"/>
<path fill-rule="evenodd" clip-rule="evenodd" d="M203.793 249.103C207.927 249.103 207.935 242.896 203.793 242.896C199.659 242.896 199.651 249.103 203.793 249.103Z" fill="#241E1E"/>
<path fill-rule="evenodd" clip-rule="evenodd" d="M226.552 249.103C230.686 249.103 230.693 242.896 226.552 242.896C222.417 242.896 222.411 249.103 226.552 249.103Z" fill="#241E1E"/>
<path fill-rule="evenodd" clip-rule="evenodd" d="M247.241 249.103C251.376 249.103 251.383 242.896 247.241 242.896C243.107 242.896 243.1 249.103 247.241 249.103Z" fill="#241E1E"/>
<path fill-rule="evenodd" clip-rule="evenodd" d="M174.827 261.517C178.962 261.517 178.969 255.311 174.827 255.311C170.693 255.311 170.686 261.517 174.827 261.517Z" fill="#241E1E"/>
<path fill-rule="evenodd" clip-rule="evenodd" d="M195.517 261.517C199.651 261.517 199.659 255.311 195.517 255.311C191.382 255.311 191.376 261.517 195.517 261.517Z" fill="#241E1E"/>
<path fill-rule="evenodd" clip-rule="evenodd" d="M216.207 261.517C220.342 261.517 220.348 255.311 216.207 255.311C212.073 255.311 212.065 261.517 216.207 261.517Z" fill="#241E1E"/>
<path fill-rule="evenodd" clip-rule="evenodd" d="M238.966 261.517C243.1 261.517 243.107 255.311 238.966 255.311C234.831 255.311 234.824 261.517 238.966 261.517Z" fill="#241E1E"/>
<path fill-rule="evenodd" clip-rule="evenodd" d="M183.104 273.931C187.238 273.931 187.244 267.724 183.104 267.724C178.969 267.724 178.962 273.931 183.104 273.931Z" fill="#241E1E"/>
<path fill-rule="evenodd" clip-rule="evenodd" d="M203.793 273.931C207.927 273.931 207.935 267.724 203.793 267.724C199.659 267.724 199.651 273.931 203.793 273.931Z" fill="#241E1E"/>
<path fill-rule="evenodd" clip-rule="evenodd" d="M226.552 273.931C230.686 273.931 230.693 267.724 226.552 267.724C222.417 267.724 222.411 273.931 226.552 273.931Z" fill="#241E1E"/>
<path fill-rule="evenodd" clip-rule="evenodd" d="M247.241 273.931C251.376 273.931 251.383 267.724 247.241 267.724C243.107 267.724 243.1 273.931 247.241 273.931Z" fill="#241E1E"/>
<path fill-rule="evenodd" clip-rule="evenodd" d="M174.827 286.345C178.962 286.345 178.969 280.138 174.827 280.138C170.693 280.138 170.686 286.345 174.827 286.345Z" fill="#241E1E"/>
<path fill-rule="evenodd" clip-rule="evenodd" d="M195.517 286.345C199.651 286.345 199.659 280.138 195.517 280.138C191.382 280.138 191.376 286.345 195.517 286.345Z" fill="#241E1E"/>
<path fill-rule="evenodd" clip-rule="evenodd" d="M216.207 286.345C220.342 286.345 220.348 280.138 216.207 280.138C212.073 280.138 212.065 286.345 216.207 286.345Z" fill="#241E1E"/>
<path fill-rule="evenodd" clip-rule="evenodd" d="M238.966 286.345C243.1 286.345 243.107 280.138 238.966 280.138C234.831 280.138 234.824 286.345 238.966 286.345Z" fill="#241E1E"/>
<mask id="mask8" mask-type="alpha" maskUnits="userSpaceOnUse" x="180" y="292" width="6" height="7">
<path fill-rule="evenodd" clip-rule="evenodd" d="M185.523 298.758H180.384L180.384 292.552H185.523V298.758Z" fill="white"/>
</mask>
<g mask="url(#mask8)">
<path fill-rule="evenodd" clip-rule="evenodd" d="M182.954 298.759C186.376 298.759 186.382 292.552 182.954 292.552C179.53 292.552 179.525 298.759 182.954 298.759Z" fill="#241E1E"/>
</g>
<mask id="mask9" mask-type="alpha" maskUnits="userSpaceOnUse" x="200" y="292" width="7" height="7">
<path fill-rule="evenodd" clip-rule="evenodd" d="M206.691 298.758H200.696V292.552H206.691V298.758Z" fill="white"/>
</mask>
<g mask="url(#mask9)">
<path fill-rule="evenodd" clip-rule="evenodd" d="M203.693 298.759C207.686 298.759 207.694 292.552 203.693 292.552C199.7 292.552 199.693 298.759 203.693 298.759Z" fill="#241E1E"/>
</g>
<mask id="mask10" mask-type="alpha" maskUnits="userSpaceOnUse" x="223" y="292" width="7" height="7">
<path fill-rule="evenodd" clip-rule="evenodd" d="M229.1 298.758H223.961L223.961 292.552H229.1V298.758Z" fill="white"/>
</mask>
<g mask="url(#mask10)">
<path fill-rule="evenodd" clip-rule="evenodd" d="M226.531 298.759C229.954 298.759 229.96 292.552 226.531 292.552C223.108 292.552 223.102 298.759 226.531 298.759Z" fill="#241E1E"/>
</g>
<mask id="mask11" mask-type="alpha" maskUnits="userSpaceOnUse" x="244" y="292" width="7" height="7">
<path fill-rule="evenodd" clip-rule="evenodd" d="M250.29 298.758H244.295V292.552H250.29V298.758Z" fill="white"/>
</mask>
<g mask="url(#mask11)">
<path fill-rule="evenodd" clip-rule="evenodd" d="M247.292 298.759C251.286 298.759 251.292 292.552 247.292 292.552C243.299 292.552 243.292 298.759 247.292 298.759Z" fill="#241E1E"/>
</g>
<path fill-rule="evenodd" clip-rule="evenodd" d="M259.655 162.207C263.789 162.207 263.797 156 259.655 156C255.521 156 255.513 162.207 259.655 162.207Z" fill="#241E1E"/>
<path fill-rule="evenodd" clip-rule="evenodd" d="M280.344 162.207C284.48 162.207 284.486 156 280.344 156C276.21 156 276.204 162.207 280.344 162.207Z" fill="#241E1E"/>
<path fill-rule="evenodd" clip-rule="evenodd" d="M301.034 162.207C305.169 162.207 305.176 156 301.034 156C296.9 156 296.893 162.207 301.034 162.207Z" fill="#241E1E"/>
<path fill-rule="evenodd" clip-rule="evenodd" d="M321.725 162.207C325.859 162.207 325.865 156 321.725 156C317.589 156 317.583 162.207 321.725 162.207Z" fill="#241E1E"/>
<path fill-rule="evenodd" clip-rule="evenodd" d="M267.931 174.621C272.066 174.621 272.072 168.414 267.931 168.414C263.797 168.414 263.789 174.621 267.931 174.621Z" fill="#241E1E"/>
<path fill-rule="evenodd" clip-rule="evenodd" d="M290.69 174.621C294.824 174.621 294.831 168.414 290.69 168.414C286.555 168.414 286.548 174.621 290.69 174.621Z" fill="#241E1E"/>
<path fill-rule="evenodd" clip-rule="evenodd" d="M311.379 174.621C315.514 174.621 315.521 168.414 311.379 168.414C307.245 168.414 307.238 174.621 311.379 174.621Z" fill="#241E1E"/>
<path fill-rule="evenodd" clip-rule="evenodd" d="M332.173 174.62C335.596 174.62 335.602 168.414 332.173 168.414C328.75 168.414 328.744 174.62 332.173 174.62Z" fill="#241E1E"/>
<path fill-rule="evenodd" clip-rule="evenodd" d="M259.655 187.035C263.789 187.035 263.797 180.828 259.655 180.828C255.521 180.828 255.513 187.035 259.655 187.035Z" fill="#241E1E"/>
<path fill-rule="evenodd" clip-rule="evenodd" d="M280.344 187.035C284.48 187.035 284.486 180.828 280.344 180.828C276.21 180.828 276.204 187.035 280.344 187.035Z" fill="#241E1E"/>
<path fill-rule="evenodd" clip-rule="evenodd" d="M301.034 187.035C305.169 187.035 305.176 180.828 301.034 180.828C296.9 180.828 296.893 187.035 301.034 187.035Z" fill="#241E1E"/>
<path fill-rule="evenodd" clip-rule="evenodd" d="M321.725 187.035C325.859 187.035 325.865 180.828 321.725 180.828C317.589 180.828 317.583 187.035 321.725 187.035Z" fill="#241E1E"/>
<path fill-rule="evenodd" clip-rule="evenodd" d="M267.931 197.379C272.066 197.379 272.072 191.172 267.931 191.172C263.797 191.172 263.789 197.379 267.931 197.379Z" fill="#241E1E"/>
<path fill-rule="evenodd" clip-rule="evenodd" d="M290.69 197.379C294.824 197.379 294.831 191.172 290.69 191.172C286.555 191.172 286.548 197.379 290.69 197.379Z" fill="#241E1E"/>
<path fill-rule="evenodd" clip-rule="evenodd" d="M311.379 197.379C315.514 197.379 315.521 191.172 311.379 191.172C307.245 191.172 307.238 197.379 311.379 197.379Z" fill="#241E1E"/>
<path fill-rule="evenodd" clip-rule="evenodd" d="M332.173 196.848C335.596 196.848 335.602 191.527 332.173 191.527C328.75 191.527 328.744 196.848 332.173 196.848Z" fill="#241E1E"/>
<path fill-rule="evenodd" clip-rule="evenodd" d="M259.655 209.793C263.789 209.793 263.797 203.586 259.655 203.586C255.521 203.586 255.513 209.793 259.655 209.793Z" fill="#241E1E"/>
<path fill-rule="evenodd" clip-rule="evenodd" d="M280.344 209.793C284.48 209.793 284.486 203.586 280.344 203.586C276.21 203.586 276.204 209.793 280.344 209.793Z" fill="#241E1E"/>
<path fill-rule="evenodd" clip-rule="evenodd" d="M301.034 209.793C305.169 209.793 305.176 203.586 301.034 203.586C296.9 203.586 296.893 209.793 301.034 209.793Z" fill="#241E1E"/>
<path fill-rule="evenodd" clip-rule="evenodd" d="M321.725 209.793C325.859 209.793 325.865 203.586 321.725 203.586C317.589 203.586 317.583 209.793 321.725 209.793Z" fill="#241E1E"/>
<path fill-rule="evenodd" clip-rule="evenodd" d="M267.931 222.207C272.066 222.207 272.072 216 267.931 216C263.797 216 263.789 222.207 267.931 222.207Z" fill="#241E1E"/>
<path fill-rule="evenodd" clip-rule="evenodd" d="M290.69 222.207C294.824 222.207 294.831 216 290.69 216C286.555 216 286.548 222.207 290.69 222.207Z" fill="#241E1E"/>
<path fill-rule="evenodd" clip-rule="evenodd" d="M311.379 222.207C315.514 222.207 315.521 216 311.379 216C307.245 216 307.238 222.207 311.379 222.207Z" fill="#241E1E"/>
<path fill-rule="evenodd" clip-rule="evenodd" d="M332.069 222.207C336.203 222.207 336.211 216 332.069 216C327.934 216 327.928 222.207 332.069 222.207Z" fill="#241E1E"/>
<path fill-rule="evenodd" clip-rule="evenodd" d="M259.655 234.621C263.789 234.621 263.797 228.414 259.655 228.414C255.521 228.414 255.513 234.621 259.655 234.621Z" fill="#241E1E"/>
<path fill-rule="evenodd" clip-rule="evenodd" d="M280.344 234.621C284.48 234.621 284.486 228.414 280.344 228.414C276.21 228.414 276.204 234.621 280.344 234.621Z" fill="#241E1E"/>
<path fill-rule="evenodd" clip-rule="evenodd" d="M301.034 234.621C305.169 234.621 305.176 228.414 301.034 228.414C296.9 228.414 296.893 234.621 301.034 234.621Z" fill="#241E1E"/>
<path fill-rule="evenodd" clip-rule="evenodd" d="M321.725 234.621C325.859 234.621 325.865 228.414 321.725 228.414C317.589 228.414 317.583 234.621 321.725 234.621Z" fill="#241E1E"/>
<path fill-rule="evenodd" clip-rule="evenodd" d="M267.931 249.103C272.066 249.103 272.072 242.896 267.931 242.896C263.797 242.896 263.789 249.103 267.931 249.103Z" fill="#241E1E"/>
<path fill-rule="evenodd" clip-rule="evenodd" d="M290.69 249.103C294.824 249.103 294.831 242.896 290.69 242.896C286.555 242.896 286.548 249.103 290.69 249.103Z" fill="#241E1E"/>
<path fill-rule="evenodd" clip-rule="evenodd" d="M311.379 249.103C315.514 249.103 315.521 242.896 311.379 242.896C307.245 242.896 307.238 249.103 311.379 249.103Z" fill="#241E1E"/>
<path fill-rule="evenodd" clip-rule="evenodd" d="M332.173 248.394C335.596 248.394 335.602 243.074 332.173 243.074C328.75 243.074 328.744 248.394 332.173 248.394Z" fill="#241E1E"/>
<path fill-rule="evenodd" clip-rule="evenodd" d="M259.655 261.517C263.789 261.517 263.797 255.311 259.655 255.311C255.521 255.311 255.513 261.517 259.655 261.517Z" fill="#241E1E"/>
<path fill-rule="evenodd" clip-rule="evenodd" d="M280.344 261.517C284.48 261.517 284.486 255.311 280.344 255.311C276.21 255.311 276.204 261.517 280.344 261.517Z" fill="#241E1E"/>
<path fill-rule="evenodd" clip-rule="evenodd" d="M301.034 261.517C305.169 261.517 305.176 255.311 301.034 255.311C296.9 255.311 296.893 261.517 301.034 261.517Z" fill="#241E1E"/>
<path fill-rule="evenodd" clip-rule="evenodd" d="M321.725 261.517C325.859 261.517 325.865 255.311 321.725 255.311C317.589 255.311 317.583 261.517 321.725 261.517Z" fill="#241E1E"/>
<path fill-rule="evenodd" clip-rule="evenodd" d="M267.931 273.931C272.066 273.931 272.072 267.724 267.931 267.724C263.797 267.724 263.789 273.931 267.931 273.931Z" fill="#241E1E"/>
<path fill-rule="evenodd" clip-rule="evenodd" d="M290.69 273.931C294.824 273.931 294.831 267.724 290.69 267.724C286.555 267.724 286.548 273.931 290.69 273.931Z" fill="#241E1E"/>
<path fill-rule="evenodd" clip-rule="evenodd" d="M311.379 273.931C315.514 273.931 315.521 267.724 311.379 267.724C307.245 267.724 307.238 273.931 311.379 273.931Z" fill="#241E1E"/>
<path fill-rule="evenodd" clip-rule="evenodd" d="M332.173 273.576C335.596 273.576 335.602 268.256 332.173 268.256C328.75 268.256 328.744 273.576 332.173 273.576Z" fill="#241E1E"/>
<path fill-rule="evenodd" clip-rule="evenodd" d="M259.655 286.345C263.789 286.345 263.797 280.138 259.655 280.138C255.521 280.138 255.513 286.345 259.655 286.345Z" fill="#241E1E"/>
<path fill-rule="evenodd" clip-rule="evenodd" d="M280.344 286.345C284.48 286.345 284.486 280.138 280.344 280.138C276.21 280.138 276.204 286.345 280.344 286.345Z" fill="#241E1E"/>
<path fill-rule="evenodd" clip-rule="evenodd" d="M301.034 286.345C305.169 286.345 305.176 280.138 301.034 280.138C296.9 280.138 296.893 286.345 301.034 286.345Z" fill="#241E1E"/>
<path fill-rule="evenodd" clip-rule="evenodd" d="M321.725 286.345C325.859 286.345 325.865 280.138 321.725 280.138C317.589 280.138 317.583 286.345 321.725 286.345Z" fill="#241E1E"/>
<mask id="mask12" mask-type="alpha" maskUnits="userSpaceOnUse" x="264" y="292" width="7" height="7">
<path fill-rule="evenodd" clip-rule="evenodd" d="M270.824 298.758H264.829V292.552H270.824V298.758Z" fill="white"/>
</mask>
<g mask="url(#mask12)">
<path fill-rule="evenodd" clip-rule="evenodd" d="M267.826 298.759C271.82 298.759 271.826 292.552 267.826 292.552C263.833 292.552 263.826 298.759 267.826 298.759Z" fill="#241E1E"/>
</g>
<mask id="mask13" mask-type="alpha" maskUnits="userSpaceOnUse" x="288" y="292" width="6" height="7">
<path fill-rule="evenodd" clip-rule="evenodd" d="M293.234 298.758H288.095L288.095 292.552H293.234V298.758Z" fill="white"/>
</mask>
<g mask="url(#mask13)">
<path fill-rule="evenodd" clip-rule="evenodd" d="M290.665 298.759C294.087 298.759 294.094 292.552 290.665 292.552C287.241 292.552 287.236 298.759 290.665 298.759Z" fill="#241E1E"/>
</g>
<mask id="mask14" mask-type="alpha" maskUnits="userSpaceOnUse" x="308" y="292" width="7" height="7">
<path fill-rule="evenodd" clip-rule="evenodd" d="M314.423 298.758H308.427V292.552H314.423V298.758Z" fill="white"/>
</mask>
<g mask="url(#mask14)">
<path fill-rule="evenodd" clip-rule="evenodd" d="M311.425 298.759C315.419 298.759 315.425 292.552 311.425 292.552C307.432 292.552 307.425 298.759 311.425 298.759Z" fill="#241E1E"/>
</g>
<mask id="mask15" mask-type="alpha" maskUnits="userSpaceOnUse" x="0" y="1" width="335" height="298">
<path fill-rule="evenodd" clip-rule="evenodd" d="M329.936 298.759H0V1.03564H334.768V298.759H329.936L334.768 298.759V293.766H329.936V298.759Z" fill="white"/>
</mask>
<g mask="url(#mask15)">
<path fill-rule="evenodd" clip-rule="evenodd" d="M332.352 298.759C335.57 298.759 335.576 293.766 332.352 293.766C329.133 293.766 329.128 298.759 332.352 298.759Z" fill="#241E1E"/>
</g>
<path fill-rule="evenodd" clip-rule="evenodd" d="M174.828 7.03453C178.962 7.03453 178.969 0.827637 174.828 0.827637C170.693 0.827637 170.686 7.03453 174.828 7.03453Z" fill="#241E1E"/>
<path fill-rule="evenodd" clip-rule="evenodd" d="M195.517 7.03453C199.652 7.03453 199.659 0.827637 195.517 0.827637C191.383 0.827637 191.376 7.03453 195.517 7.03453Z" fill="#241E1E"/>
<path fill-rule="evenodd" clip-rule="evenodd" d="M216.207 7.03453C220.341 7.03453 220.349 0.827637 216.207 0.827637C212.073 0.827637 212.065 7.03453 216.207 7.03453Z" fill="#241E1E"/>
<path fill-rule="evenodd" clip-rule="evenodd" d="M238.966 7.03453C243.1 7.03453 243.107 0.827637 238.966 0.827637C234.831 0.827637 234.824 7.03453 238.966 7.03453Z" fill="#241E1E"/>
<path fill-rule="evenodd" clip-rule="evenodd" d="M183.103 23.5863C187.238 23.5863 187.245 17.3794 183.103 17.3794C178.969 17.3794 178.962 23.5863 183.103 23.5863Z" fill="#241E1E"/>
<path fill-rule="evenodd" clip-rule="evenodd" d="M203.793 23.5863C207.927 23.5863 207.935 17.3794 203.793 17.3794C199.658 17.3794 199.652 23.5863 203.793 23.5863Z" fill="#241E1E"/>
<path fill-rule="evenodd" clip-rule="evenodd" d="M226.552 23.5863C230.687 23.5863 230.693 17.3794 226.552 17.3794C222.418 17.3794 222.41 23.5863 226.552 23.5863Z" fill="#241E1E"/>
<path fill-rule="evenodd" clip-rule="evenodd" d="M247.242 23.5863C251.375 23.5863 251.383 17.3794 247.242 17.3794C243.107 17.3794 243.1 23.5863 247.242 23.5863Z" fill="#241E1E"/>
<path fill-rule="evenodd" clip-rule="evenodd" d="M174.828 33.931C178.962 33.931 178.969 27.7241 174.828 27.7241C170.693 27.7241 170.686 33.931 174.828 33.931Z" fill="#241E1E"/>
<path fill-rule="evenodd" clip-rule="evenodd" d="M195.517 33.931C199.652 33.931 199.659 27.7241 195.517 27.7241C191.383 27.7241 191.376 33.931 195.517 33.931Z" fill="#241E1E"/>
<path fill-rule="evenodd" clip-rule="evenodd" d="M216.207 33.931C220.341 33.931 220.349 27.7241 216.207 27.7241C212.073 27.7241 212.065 33.931 216.207 33.931Z" fill="#241E1E"/>
<path fill-rule="evenodd" clip-rule="evenodd" d="M238.966 33.931C243.1 33.931 243.107 27.7241 238.966 27.7241C234.831 27.7241 234.824 33.931 238.966 33.931Z" fill="#241E1E"/>
<path fill-rule="evenodd" clip-rule="evenodd" d="M183.103 46.3451C187.238 46.3451 187.245 40.1382 183.103 40.1382C178.969 40.1382 178.962 46.3451 183.103 46.3451Z" fill="#241E1E"/>
<path fill-rule="evenodd" clip-rule="evenodd" d="M203.793 46.3451C207.927 46.3451 207.935 40.1382 203.793 40.1382C199.658 40.1382 199.652 46.3451 203.793 46.3451Z" fill="#241E1E"/>
<path fill-rule="evenodd" clip-rule="evenodd" d="M226.552 46.3451C230.687 46.3451 230.693 40.1382 226.552 40.1382C222.418 40.1382 222.41 46.3451 226.552 46.3451Z" fill="#241E1E"/>
<path fill-rule="evenodd" clip-rule="evenodd" d="M247.242 46.3451C251.375 46.3451 251.383 40.1382 247.242 40.1382C243.107 40.1382 243.1 46.3451 247.242 46.3451Z" fill="#241E1E"/>
<path fill-rule="evenodd" clip-rule="evenodd" d="M170.69 58.7587C174.824 58.7587 174.831 52.5518 170.69 52.5518C166.555 52.5518 166.548 58.7587 170.69 58.7587Z" fill="#241E1E"/>
<path fill-rule="evenodd" clip-rule="evenodd" d="M191.379 58.7587C195.514 58.7587 195.521 52.5518 191.379 52.5518C187.245 52.5518 187.238 58.7587 191.379 58.7587Z" fill="#241E1E"/>
<path fill-rule="evenodd" clip-rule="evenodd" d="M214.138 58.7587C218.272 58.7587 218.28 52.5518 214.138 52.5518C210.004 52.5518 209.996 58.7587 214.138 58.7587Z" fill="#241E1E"/>
<path fill-rule="evenodd" clip-rule="evenodd" d="M234.828 58.7587C238.962 58.7587 238.969 52.5518 234.828 52.5518C230.693 52.5518 230.686 58.7587 234.828 58.7587Z" fill="#241E1E"/>
<path fill-rule="evenodd" clip-rule="evenodd" d="M183.103 71.1722C187.238 71.1722 187.245 64.9653 183.103 64.9653C178.969 64.9653 178.962 71.1722 183.103 71.1722Z" fill="#241E1E"/>
<path fill-rule="evenodd" clip-rule="evenodd" d="M203.793 71.1722C207.927 71.1722 207.935 64.9653 203.793 64.9653C199.658 64.9653 199.652 71.1722 203.793 71.1722Z" fill="#241E1E"/>
<path fill-rule="evenodd" clip-rule="evenodd" d="M226.552 71.1722C230.687 71.1722 230.693 64.9653 226.552 64.9653C222.418 64.9653 222.41 71.1722 226.552 71.1722Z" fill="#241E1E"/>
<path fill-rule="evenodd" clip-rule="evenodd" d="M247.242 71.1722C251.375 71.1722 251.383 64.9653 247.242 64.9653C243.107 64.9653 243.1 71.1722 247.242 71.1722Z" fill="#241E1E"/>
<path fill-rule="evenodd" clip-rule="evenodd" d="M174.828 83.5863C178.962 83.5863 178.969 77.3794 174.828 77.3794C170.693 77.3794 170.686 83.5863 174.828 83.5863Z" fill="#241E1E"/>
<path fill-rule="evenodd" clip-rule="evenodd" d="M195.517 83.5863C199.652 83.5863 199.659 77.3794 195.517 77.3794C191.383 77.3794 191.376 83.5863 195.517 83.5863Z" fill="#241E1E"/>
<path fill-rule="evenodd" clip-rule="evenodd" d="M216.207 83.5863C220.341 83.5863 220.349 77.3794 216.207 77.3794C212.073 77.3794 212.065 83.5863 216.207 83.5863Z" fill="#241E1E"/>
<path fill-rule="evenodd" clip-rule="evenodd" d="M238.966 83.5863C243.1 83.5863 243.107 77.3794 238.966 77.3794C234.831 77.3794 234.824 83.5863 238.966 83.5863Z" fill="#241E1E"/>
<path fill-rule="evenodd" clip-rule="evenodd" d="M183.103 93.931C187.238 93.931 187.245 87.7241 183.103 87.7241C178.969 87.7241 178.962 93.931 183.103 93.931Z" fill="#241E1E"/>
<path fill-rule="evenodd" clip-rule="evenodd" d="M203.793 93.931C207.927 93.931 207.935 87.7241 203.793 87.7241C199.658 87.7241 199.652 93.931 203.793 93.931Z" fill="#241E1E"/>
<path fill-rule="evenodd" clip-rule="evenodd" d="M226.552 93.931C230.687 93.931 230.693 87.7241 226.552 87.7241C222.418 87.7241 222.41 93.931 226.552 93.931Z" fill="#241E1E"/>
<path fill-rule="evenodd" clip-rule="evenodd" d="M247.242 93.931C251.375 93.931 251.383 87.7241 247.242 87.7241C243.107 87.7241 243.1 93.931 247.242 93.931Z" fill="#241E1E"/>
<path fill-rule="evenodd" clip-rule="evenodd" d="M174.828 106.345C178.962 106.345 178.969 100.138 174.828 100.138C170.693 100.138 170.686 106.345 174.828 106.345Z" fill="#241E1E"/>
<path fill-rule="evenodd" clip-rule="evenodd" d="M195.517 106.345C199.652 106.345 199.659 100.138 195.517 100.138C191.383 100.138 191.376 106.345 195.517 106.345Z" fill="#241E1E"/>
<path fill-rule="evenodd" clip-rule="evenodd" d="M216.207 106.345C220.341 106.345 220.349 100.138 216.207 100.138C212.073 100.138 212.065 106.345 216.207 106.345Z" fill="#241E1E"/>
<path fill-rule="evenodd" clip-rule="evenodd" d="M238.966 106.345C243.1 106.345 243.107 100.138 238.966 100.138C234.831 100.138 234.824 106.345 238.966 106.345Z" fill="#241E1E"/>
<path fill-rule="evenodd" clip-rule="evenodd" d="M183.103 122.897C187.238 122.897 187.245 116.69 183.103 116.69C178.969 116.69 178.962 122.897 183.103 122.897Z" fill="#241E1E"/>
<path fill-rule="evenodd" clip-rule="evenodd" d="M203.793 122.897C207.927 122.897 207.935 116.69 203.793 116.69C199.658 116.69 199.652 122.897 203.793 122.897Z" fill="#241E1E"/>
<path fill-rule="evenodd" clip-rule="evenodd" d="M226.552 122.897C230.687 122.897 230.693 116.69 226.552 116.69C222.418 116.69 222.41 122.897 226.552 122.897Z" fill="#241E1E"/>
<path fill-rule="evenodd" clip-rule="evenodd" d="M247.242 122.897C251.375 122.897 251.383 116.69 247.242 116.69C243.107 116.69 243.1 122.897 247.242 122.897Z" fill="#241E1E"/>
<path fill-rule="evenodd" clip-rule="evenodd" d="M174.828 135.31C178.962 135.31 178.969 129.104 174.828 129.104C170.693 129.104 170.686 135.31 174.828 135.31Z" fill="#241E1E"/>
<path fill-rule="evenodd" clip-rule="evenodd" d="M195.517 135.31C199.652 135.31 199.659 129.104 195.517 129.104C191.383 129.104 191.376 135.31 195.517 135.31Z" fill="#241E1E"/>
<path fill-rule="evenodd" clip-rule="evenodd" d="M216.207 135.31C220.341 135.31 220.349 129.104 216.207 129.104C212.073 129.104 212.065 135.31 216.207 135.31Z" fill="#241E1E"/>
<path fill-rule="evenodd" clip-rule="evenodd" d="M238.966 135.31C243.1 135.31 243.107 129.104 238.966 129.104C234.831 129.104 234.824 135.31 238.966 135.31Z" fill="#241E1E"/>
<path fill-rule="evenodd" clip-rule="evenodd" d="M183.103 145.655C187.238 145.655 187.245 139.448 183.103 139.448C178.969 139.448 178.962 145.655 183.103 145.655Z" fill="#241E1E"/>
<path fill-rule="evenodd" clip-rule="evenodd" d="M203.793 145.655C207.927 145.655 207.935 139.448 203.793 139.448C199.658 139.448 199.652 145.655 203.793 145.655Z" fill="#241E1E"/>
<path fill-rule="evenodd" clip-rule="evenodd" d="M226.552 145.655C230.687 145.655 230.693 139.448 226.552 139.448C222.418 139.448 222.41 145.655 226.552 145.655Z" fill="#241E1E"/>
<path fill-rule="evenodd" clip-rule="evenodd" d="M247.242 145.655C251.375 145.655 251.383 139.448 247.242 139.448C243.107 139.448 243.1 145.655 247.242 145.655Z" fill="#241E1E"/>
<path fill-rule="evenodd" clip-rule="evenodd" d="M255.518 7.03453C259.652 7.03453 259.658 0.827637 255.518 0.827637C251.382 0.827637 251.376 7.03453 255.518 7.03453Z" fill="#241E1E"/>
<path fill-rule="evenodd" clip-rule="evenodd" d="M278.276 7.03453C282.41 7.03453 282.418 0.827637 278.276 0.827637C274.142 0.827637 274.134 7.03453 278.276 7.03453Z" fill="#241E1E"/>
<path fill-rule="evenodd" clip-rule="evenodd" d="M298.966 7.03453C303.1 7.03453 303.107 0.827637 298.966 0.827637C294.831 0.827637 294.824 7.03453 298.966 7.03453Z" fill="#241E1E"/>
<path fill-rule="evenodd" clip-rule="evenodd" d="M319.655 7.03453C323.79 7.03453 323.796 0.827637 319.655 0.827637C315.521 0.827637 315.514 7.03453 319.655 7.03453Z" fill="#241E1E"/>
<path fill-rule="evenodd" clip-rule="evenodd" d="M267.931 23.5863C272.065 23.5863 272.073 17.3794 267.931 17.3794C263.796 17.3794 263.79 23.5863 267.931 23.5863Z" fill="#241E1E"/>
<path fill-rule="evenodd" clip-rule="evenodd" d="M290.689 23.5863C294.824 23.5863 294.831 17.3794 290.689 17.3794C286.556 17.3794 286.548 23.5863 290.689 23.5863Z" fill="#241E1E"/>
<path fill-rule="evenodd" clip-rule="evenodd" d="M311.379 23.5863C315.513 23.5863 315.521 17.3794 311.379 17.3794C307.245 17.3794 307.238 23.5863 311.379 23.5863Z" fill="#241E1E"/>
<path fill-rule="evenodd" clip-rule="evenodd" d="M332.069 23.5863C336.204 23.5863 336.21 17.3794 332.069 17.3794C327.934 17.3794 327.928 23.5863 332.069 23.5863Z" fill="#241E1E"/>
<path fill-rule="evenodd" clip-rule="evenodd" d="M255.518 33.931C259.652 33.931 259.658 27.7241 255.518 27.7241C251.382 27.7241 251.376 33.931 255.518 33.931Z" fill="#241E1E"/>
<path fill-rule="evenodd" clip-rule="evenodd" d="M278.276 33.931C282.41 33.931 282.418 27.7241 278.276 27.7241C274.142 27.7241 274.134 33.931 278.276 33.931Z" fill="#241E1E"/>
<path fill-rule="evenodd" clip-rule="evenodd" d="M298.966 33.931C303.1 33.931 303.107 27.7241 298.966 27.7241C294.831 27.7241 294.824 33.931 298.966 33.931Z" fill="#241E1E"/>
<path fill-rule="evenodd" clip-rule="evenodd" d="M319.655 33.931C323.79 33.931 323.796 27.7241 319.655 27.7241C315.521 27.7241 315.514 33.931 319.655 33.931Z" fill="#241E1E"/>
<path fill-rule="evenodd" clip-rule="evenodd" d="M267.931 46.3451C272.065 46.3451 272.073 40.1382 267.931 40.1382C263.796 40.1382 263.79 46.3451 267.931 46.3451Z" fill="#241E1E"/>
<path fill-rule="evenodd" clip-rule="evenodd" d="M290.689 46.3451C294.824 46.3451 294.831 40.1382 290.689 40.1382C286.556 40.1382 286.548 46.3451 290.689 46.3451Z" fill="#241E1E"/>
<path fill-rule="evenodd" clip-rule="evenodd" d="M311.379 46.3451C315.513 46.3451 315.521 40.1382 311.379 40.1382C307.245 40.1382 307.238 46.3451 311.379 46.3451Z" fill="#241E1E"/>
<path fill-rule="evenodd" clip-rule="evenodd" d="M332.069 46.3451C336.204 46.3451 336.21 40.1382 332.069 40.1382C327.934 40.1382 327.928 46.3451 332.069 46.3451Z" fill="#241E1E"/>
<path fill-rule="evenodd" clip-rule="evenodd" d="M255.518 58.7587C259.652 58.7587 259.658 52.5518 255.518 52.5518C251.382 52.5518 251.376 58.7587 255.518 58.7587Z" fill="#241E1E"/>
<path fill-rule="evenodd" clip-rule="evenodd" d="M278.276 58.7587C282.41 58.7587 282.418 52.5518 278.276 52.5518C274.142 52.5518 274.134 58.7587 278.276 58.7587Z" fill="#241E1E"/>
<path fill-rule="evenodd" clip-rule="evenodd" d="M298.966 58.7587C303.1 58.7587 303.107 52.5518 298.966 52.5518C294.831 52.5518 294.824 58.7587 298.966 58.7587Z" fill="#241E1E"/>
<path fill-rule="evenodd" clip-rule="evenodd" d="M319.655 58.7587C323.79 58.7587 323.796 52.5518 319.655 52.5518C315.521 52.5518 315.514 58.7587 319.655 58.7587Z" fill="#241E1E"/>
<path fill-rule="evenodd" clip-rule="evenodd" d="M267.931 71.1722C272.065 71.1722 272.073 64.9653 267.931 64.9653C263.796 64.9653 263.79 71.1722 267.931 71.1722Z" fill="#241E1E"/>
<path fill-rule="evenodd" clip-rule="evenodd" d="M290.689 71.1722C294.824 71.1722 294.831 64.9653 290.689 64.9653C286.556 64.9653 286.548 71.1722 290.689 71.1722Z" fill="#241E1E"/>
<path fill-rule="evenodd" clip-rule="evenodd" d="M311.379 71.1722C315.513 71.1722 315.521 64.9653 311.379 64.9653C307.245 64.9653 307.238 71.1722 311.379 71.1722Z" fill="#241E1E"/>
<path fill-rule="evenodd" clip-rule="evenodd" d="M332.069 71.1722C336.204 71.1722 336.21 64.9653 332.069 64.9653C327.934 64.9653 327.928 71.1722 332.069 71.1722Z" fill="#241E1E"/>
<path fill-rule="evenodd" clip-rule="evenodd" d="M255.518 83.5863C259.652 83.5863 259.658 77.3794 255.518 77.3794C251.382 77.3794 251.376 83.5863 255.518 83.5863Z" fill="#241E1E"/>
<path fill-rule="evenodd" clip-rule="evenodd" d="M278.276 83.5863C282.41 83.5863 282.418 77.3794 278.276 77.3794C274.142 77.3794 274.134 83.5863 278.276 83.5863Z" fill="#241E1E"/>
<path fill-rule="evenodd" clip-rule="evenodd" d="M298.966 83.5863C303.1 83.5863 303.107 77.3794 298.966 77.3794C294.831 77.3794 294.824 83.5863 298.966 83.5863Z" fill="#241E1E"/>
<path fill-rule="evenodd" clip-rule="evenodd" d="M319.655 83.5863C323.79 83.5863 323.796 77.3794 319.655 77.3794C315.521 77.3794 315.514 83.5863 319.655 83.5863Z" fill="#241E1E"/>
<path fill-rule="evenodd" clip-rule="evenodd" d="M267.931 93.931C272.065 93.931 272.073 87.7241 267.931 87.7241C263.796 87.7241 263.79 93.931 267.931 93.931Z" fill="#241E1E"/>
<path fill-rule="evenodd" clip-rule="evenodd" d="M290.689 93.931C294.824 93.931 294.831 87.7241 290.689 87.7241C286.556 87.7241 286.548 93.931 290.689 93.931Z" fill="#241E1E"/>
<path fill-rule="evenodd" clip-rule="evenodd" d="M311.379 93.931C315.513 93.931 315.521 87.7241 311.379 87.7241C307.245 87.7241 307.238 93.931 311.379 93.931Z" fill="#241E1E"/>
<path fill-rule="evenodd" clip-rule="evenodd" d="M332.069 93.931C336.204 93.931 336.21 87.7241 332.069 87.7241C327.934 87.7241 327.928 93.931 332.069 93.931Z" fill="#241E1E"/>
<path fill-rule="evenodd" clip-rule="evenodd" d="M255.518 106.345C259.652 106.345 259.658 100.138 255.518 100.138C251.382 100.138 251.376 106.345 255.518 106.345Z" fill="#241E1E"/>
<path fill-rule="evenodd" clip-rule="evenodd" d="M278.276 106.345C282.41 106.345 282.418 100.138 278.276 100.138C274.142 100.138 274.134 106.345 278.276 106.345Z" fill="#241E1E"/>
<path fill-rule="evenodd" clip-rule="evenodd" d="M298.966 106.345C303.1 106.345 303.107 100.138 298.966 100.138C294.831 100.138 294.824 106.345 298.966 106.345Z" fill="#241E1E"/>
<path fill-rule="evenodd" clip-rule="evenodd" d="M319.655 106.345C323.79 106.345 323.796 100.138 319.655 100.138C315.521 100.138 315.514 106.345 319.655 106.345Z" fill="#241E1E"/>
<path fill-rule="evenodd" clip-rule="evenodd" d="M267.931 122.897C272.065 122.897 272.073 116.69 267.931 116.69C263.796 116.69 263.79 122.897 267.931 122.897Z" fill="#241E1E"/>
<path fill-rule="evenodd" clip-rule="evenodd" d="M290.689 122.897C294.824 122.897 294.831 116.69 290.689 116.69C286.556 116.69 286.548 122.897 290.689 122.897Z" fill="#241E1E"/>
<path fill-rule="evenodd" clip-rule="evenodd" d="M311.379 122.897C315.513 122.897 315.521 116.69 311.379 116.69C307.245 116.69 307.238 122.897 311.379 122.897Z" fill="#241E1E"/>
<path fill-rule="evenodd" clip-rule="evenodd" d="M332.069 122.897C336.204 122.897 336.21 116.69 332.069 116.69C327.934 116.69 327.928 122.897 332.069 122.897Z" fill="#241E1E"/>
<path fill-rule="evenodd" clip-rule="evenodd" d="M255.518 135.31C259.652 135.31 259.658 129.104 255.518 129.104C251.382 129.104 251.376 135.31 255.518 135.31Z" fill="#241E1E"/>
<path fill-rule="evenodd" clip-rule="evenodd" d="M278.276 135.31C282.41 135.31 282.418 129.104 278.276 129.104C274.142 129.104 274.134 135.31 278.276 135.31Z" fill="#241E1E"/>
<path fill-rule="evenodd" clip-rule="evenodd" d="M298.966 135.31C303.1 135.31 303.107 129.104 298.966 129.104C294.831 129.104 294.824 135.31 298.966 135.31Z" fill="#241E1E"/>
<path fill-rule="evenodd" clip-rule="evenodd" d="M319.655 135.31C323.79 135.31 323.796 129.104 319.655 129.104C315.521 129.104 315.514 135.31 319.655 135.31Z" fill="#241E1E"/>
<path fill-rule="evenodd" clip-rule="evenodd" d="M267.931 145.655C272.065 145.655 272.073 139.448 267.931 139.448C263.796 139.448 263.79 145.655 267.931 145.655Z" fill="#241E1E"/>
<path fill-rule="evenodd" clip-rule="evenodd" d="M290.689 145.655C294.824 145.655 294.831 139.448 290.689 139.448C286.556 139.448 286.548 145.655 290.689 145.655Z" fill="#241E1E"/>
<path fill-rule="evenodd" clip-rule="evenodd" d="M311.379 145.655C315.513 145.655 315.521 139.448 311.379 139.448C307.245 139.448 307.238 145.655 311.379 145.655Z" fill="#241E1E"/>
<path fill-rule="evenodd" clip-rule="evenodd" d="M332.069 145.655C336.204 145.655 336.21 139.448 332.069 139.448C327.934 139.448 327.928 145.655 332.069 145.655Z" fill="#241E1E"/>
</g>
</svg>
