<svg width="29" height="29" viewBox="0 0 29 29" fill="none" xmlns="http://www.w3.org/2000/svg">
<path fill-rule="evenodd" clip-rule="evenodd" d="M25.5244 13.3355C24.9912 8.50213 21.1546 4.66554 16.3212 4.13236V2.90372C16.3212 2.26622 15.7996 1.74463 15.1621 1.74463C14.5246 1.74463 14.003 2.26622 14.003 2.90372V4.13236C9.16961 4.66554 5.33302 8.50213 4.79984 13.3355H3.5712C2.9337 13.3355 2.41211 13.8571 2.41211 14.4946C2.41211 15.1321 2.9337 15.6537 3.5712 15.6537H4.79984C5.33302 20.4871 9.16961 24.3237 14.003 24.8569V26.0855C14.003 26.723 14.5246 27.2446 15.1621 27.2446C15.7996 27.2446 16.3212 26.723 16.3212 26.0855V24.8569C21.1546 24.3237 24.9912 20.4871 25.5244 15.6537H26.753C27.3905 15.6537 27.9121 15.1321 27.9121 14.4946C27.9121 13.8571 27.3905 13.3355 26.753 13.3355H25.5244ZM15.1621 9.85826C12.6005 9.85826 10.5257 11.933 10.5257 14.4946C10.5257 17.0562 12.6005 19.131 15.1621 19.131C17.7237 19.131 19.7985 17.0562 19.7985 14.4946C19.7985 11.933 17.7237 9.85826 15.1621 9.85826ZM7.04847 14.4946C7.04847 18.9803 10.6764 22.6083 15.1621 22.6083C19.6478 22.6083 23.2757 18.9803 23.2757 14.4946C23.2757 10.0089 19.6478 6.38099 15.1621 6.38099C10.6764 6.38099 7.04847 10.0089 7.04847 14.4946Z" fill="white"/>
</svg>
