<svg width="30" height="30" viewBox="0 0 30 30" fill="none" xmlns="http://www.w3.org/2000/svg">
<path fill-rule="evenodd" clip-rule="evenodd" d="M5.3082 5.74463H24.5082C25.8282 5.74463 26.9082 6.8415 26.9082 8.18213V22.8071C26.9082 24.1478 25.8282 25.2446 24.5082 25.2446H5.3082C3.9882 25.2446 2.9082 24.1478 2.9082 22.8071V8.18213C2.9082 6.8415 3.9882 5.74463 5.3082 5.74463ZM16.1802 15.909L24.0282 10.9243C24.3282 10.7293 24.5082 10.4003 24.5082 10.0468C24.5082 9.23025 23.6322 8.74275 22.9482 9.16932L14.9082 14.2759L6.8682 9.16932C6.1842 8.74275 5.3082 9.23025 5.3082 10.0468C5.3082 10.4003 5.4882 10.7293 5.7882 10.9243L13.6362 15.909C14.4162 16.4087 15.4002 16.4087 16.1802 15.909Z" fill="white"/>
</svg>
