<svg width="24" height="24" viewBox="0 0 24 24" fill="none" xmlns="http://www.w3.org/2000/svg">
<path fill-rule="evenodd" clip-rule="evenodd" d="M13.2687 0.744629H22.2262C22.93 0.744629 23.5059 1.32047 23.5059 2.02428V8.42252C23.5059 9.12633 22.93 9.70217 22.2262 9.70217H15.828L11.989 13.5411V2.02428C11.989 1.32047 12.5649 0.744629 13.2687 0.744629ZM17.9906 16.062L21.2409 16.4331C22.5333 16.5867 23.5059 17.6744 23.4931 18.9668V21.1806C23.4931 22.6266 22.2902 23.8295 20.8442 23.7399C9.92878 23.0617 1.18877 14.3345 0.51056 3.4063C0.420985 1.9603 1.62385 0.757425 3.06986 0.757425H5.28365C6.58889 0.757425 7.6766 1.72996 7.83015 3.0224L8.20125 6.24712C8.29083 7.02771 8.0221 7.7955 7.47185 8.34575L5.1045 10.7131C6.9472 14.3473 9.91598 17.3033 13.5374 19.146L15.8919 16.7914C16.4422 16.2412 17.21 15.9725 17.9906 16.062Z" fill="white"/>
</svg>
