<svg width="30" height="30" viewBox="0 0 30 30" fill="none" xmlns="http://www.w3.org/2000/svg">
<path d="M23.8993 18.6615L20.8593 18.3144C20.1292 18.2307 19.4111 18.482 18.8964 18.9967L16.6942 21.1989C13.3071 19.4754 10.5304 16.7107 8.80696 13.3116L11.0211 11.0974C11.5358 10.5827 11.7871 9.86461 11.7033 9.13453L11.3563 6.11844C11.2126 4.90961 10.1953 4 8.97452 4H6.90396C5.55152 4 4.42648 5.12505 4.51026 6.4775C5.14459 16.6987 13.3191 24.8613 23.5283 25.4956C24.8807 25.5794 26.0057 24.4543 26.0057 23.1019V21.0313C26.0177 19.8225 25.1081 18.8052 23.8993 18.6615Z" fill="white"/>
</svg>
