<svg width="66" height="66" viewBox="0 0 66 66" fill="none" xmlns="http://www.w3.org/2000/svg">
<path fill-rule="evenodd" clip-rule="evenodd" d="M33 66C51.2254 66 66 51.2254 66 33C66 14.7746 51.2254 0 33 0C14.7746 0 0 14.7746 0 33C0 51.2254 14.7746 66 33 66Z" fill="#27D045"/>
<path fill-rule="evenodd" clip-rule="evenodd" d="M31.4905 15.0606C36.8644 14.6284 41.9824 16.5212 45.7344 20.2725C50.5731 25.1133 52.3139 32.2215 49.9603 39.2019C47.5437 46.3605 40.5587 50.9816 32.9989 50.9816H32.9917C29.9786 50.9798 27.0195 50.2253 24.3902 48.7917L16.2735 50.9654C15.522 51.1653 14.8426 50.4648 15.0661 49.721L17.4016 41.9717C14.9363 37.7035 14.3002 32.5367 15.814 27.5878C17.9333 20.6615 24.2659 15.6405 31.4905 15.0606ZM38.771 41.5449C39.5964 41.471 41.4328 40.4589 41.8076 39.409C42.1824 38.3591 42.1824 37.4586 42.0707 37.2731C41.9809 37.1225 41.7699 37.0208 41.4566 36.8698C41.3802 36.833 41.2976 36.7932 41.2093 36.749C40.7606 36.5239 38.5494 35.4362 38.1367 35.2867C37.724 35.1372 37.4231 35.0616 37.1239 35.5118C36.8248 35.962 35.9634 36.9741 35.7003 37.2731C35.4371 37.5739 35.1758 37.6117 34.7253 37.3866C34.6506 37.3489 34.5484 37.3045 34.4221 37.2496C33.7872 36.9734 32.5425 36.4321 31.1085 35.1552C29.7713 33.9648 28.8703 32.4935 28.6071 32.0432C28.3458 31.5948 28.5801 31.3499 28.8054 31.1266C28.9397 30.9924 29.0939 30.8048 29.2485 30.6168C29.3262 30.5222 29.404 30.4276 29.4794 30.3396C29.67 30.1153 29.7531 29.9461 29.8662 29.7156C29.8857 29.6759 29.9061 29.6344 29.9281 29.5904C30.0777 29.2915 30.002 29.0285 29.8903 28.8034C29.8434 28.7089 29.6622 28.2628 29.4382 27.7109C29.1284 26.9478 28.7366 25.9826 28.5044 25.4663C28.1674 24.7189 27.8124 24.7027 27.4916 24.6901C27.2303 24.6793 26.9294 24.6793 26.6302 24.6793C26.3293 24.6793 25.8427 24.791 25.43 25.2412C25.4042 25.2693 25.3755 25.2998 25.3443 25.333C24.8765 25.8301 23.855 26.9157 23.855 28.9889C23.855 31.1861 25.4453 33.3086 25.6868 33.631L25.6913 33.6371C25.708 33.6594 25.7396 33.7062 25.7857 33.7745C26.3557 34.62 29.1434 38.7548 33.3737 40.4211C36.8089 41.7744 37.7699 41.661 38.5328 41.5709C38.6135 41.5614 38.692 41.5521 38.771 41.5449Z" fill="white"/>
</svg>
