<svg width="66" height="66" viewBox="0 0 66 66" fill="none" xmlns="http://www.w3.org/2000/svg">
<path fill-rule="evenodd" clip-rule="evenodd" d="M33 66C51.2254 66 66 51.2254 66 33C66 14.7746 51.2254 0 33 0C14.7746 0 0 14.7746 0 33C0 51.2254 14.7746 66 33 66Z" fill="#8F46AD"/>
<path fill-rule="evenodd" clip-rule="evenodd" d="M48.9857 22.3905C48.3347 20.0865 47.0457 18.2666 45.1576 16.9791C42.7749 15.3495 40.034 14.7751 37.6675 14.4234C34.3928 13.9394 31.4273 13.8716 28.5985 14.2136C25.9488 14.5363 23.9534 15.0494 22.1337 15.8787C18.5661 17.505 16.4241 20.1349 15.7699 23.6941C15.4508 25.4237 15.236 26.9855 15.1123 28.4763C14.8258 31.9226 15.0863 34.9719 15.9066 37.7987C16.7073 40.5544 18.1038 42.5228 20.1774 43.8167C20.7047 44.1459 21.3818 44.3846 22.0361 44.6138C22.4072 44.7428 22.7685 44.8687 23.0647 45.0074C23.3382 45.1333 23.3382 45.1559 23.3349 45.3817C23.3121 47.3404 23.3349 51.1804 23.3349 51.1804L23.3414 52H24.8258L25.0667 51.7677C25.2262 51.6192 28.9045 48.0955 30.2164 46.6757L30.3954 46.4789C30.62 46.2207 30.62 46.2207 30.8511 46.2175C32.6219 46.182 34.4318 46.1142 36.2287 46.0174C38.4064 45.9013 40.9292 45.6915 43.3054 44.7106C45.4799 43.8103 47.0684 42.3808 48.0222 40.464C49.0183 38.4634 49.6075 36.2982 49.8288 33.8425C50.2195 29.525 49.9428 25.7787 48.9857 22.3905ZM41.1538 39.1797C40.6069 40.0607 39.7931 40.6738 38.8328 41.0707C38.1297 41.3611 37.4136 41.2998 36.7202 41.0094C30.9162 38.5731 26.3622 34.7364 23.3544 29.2185C22.8923 28.3742 22.5362 27.4728 22.1807 26.5727L22.1807 26.5727C22.0579 26.2619 21.9352 25.9512 21.8082 25.6431C21.7401 25.4777 21.721 25.2917 21.7017 25.105C21.6924 25.0149 21.6831 24.9246 21.6682 24.8364C21.7106 22.8971 23.2112 21.8032 24.7281 21.474C25.3075 21.345 25.8219 21.5483 26.2515 21.9581C27.4429 23.081 28.3837 24.3879 29.0933 25.8529C29.4026 26.495 29.2626 27.0629 28.7352 27.5405C28.6246 27.6405 28.5106 27.7309 28.3902 27.8213C27.1858 28.7183 27.01 29.3992 27.6513 30.7512C28.745 33.052 30.5614 34.5976 32.9084 35.556C33.5269 35.8077 34.1096 35.6818 34.5816 35.1849L34.6096 35.1573C34.6665 35.1017 34.7248 35.0448 34.7638 34.9784C35.6883 33.4489 37.0327 33.6005 38.2729 34.4718C38.7644 34.8187 39.2476 35.1773 39.7303 35.5357C40.0469 35.7707 40.3633 36.0055 40.6818 36.2369C41.909 37.1307 41.8992 37.9697 41.1538 39.1797ZM32.6382 23.9813C32.9084 23.9361 33.1818 23.9135 33.4553 23.9135C36.144 23.9135 38.3348 26.0852 38.3348 28.7506C38.3348 29.0249 38.312 29.2959 38.2664 29.5605C38.1916 30.0091 38.4975 30.435 38.95 30.5092C38.9988 30.5189 39.0444 30.5221 39.09 30.5221C39.4904 30.5221 39.8419 30.2349 39.9103 29.8316C39.9721 29.4799 40.0014 29.1152 40.0014 28.7506C40.0014 25.172 37.0653 22.2614 33.4553 22.2614C33.0907 22.2614 32.7228 22.2904 32.3648 22.3518C31.909 22.426 31.6031 22.8519 31.6779 23.3004C31.7561 23.7522 32.1825 24.0555 32.6382 23.9813ZM37.5015 28.87C37.5015 29.325 37.1271 29.696 36.6681 29.696C36.2091 29.696 35.8348 29.325 35.8348 28.87C35.8348 27.505 34.7118 26.3918 33.3348 26.3918C32.8758 26.3918 32.5015 26.0207 32.5015 25.5657C32.5015 25.1107 32.8758 24.7396 33.3348 24.7396C35.633 24.7396 37.5015 26.5918 37.5015 28.87ZM41.4467 31.3482C41.8276 31.3482 42.1726 31.09 42.2605 30.7061C42.407 30.0575 42.4819 29.3895 42.4819 28.7183C42.4819 23.7909 38.4389 19.7832 33.4683 19.7832C32.7912 19.7832 32.1174 19.8574 31.4663 20.0058C31.0171 20.1059 30.7339 20.5479 30.8381 20.9932C30.939 21.4386 31.385 21.7193 31.8342 21.616C32.3648 21.4966 32.9149 21.4353 33.4683 21.4353C37.5177 21.4353 40.8152 24.7041 40.8152 28.7183C40.8152 29.2669 40.7534 29.8122 40.6329 30.3382C40.532 30.7835 40.812 31.2256 41.2612 31.3288C41.323 31.3417 41.3849 31.3482 41.4467 31.3482Z" fill="white"/>
</svg>
